<?xml version="1.0" standalone="no"?>
<!DOCTYPE svg PUBLIC "-//W3C//DTD SVG 1.1//EN" "http://www.w3.org/Graphics/SVG/1.1/DTD/svg11.dtd" >
<svg>
<metadata>
Created by FontForge 20120731 at Wed Aug 28 01:53:58 2019
 By www
Sign Painter House Script (C) 1993-1999 House Industries/Brand Design Co. Inc.
</metadata>
<defs>
<font id="SignPainterHouseScript" horiz-adv-x="407" >
  <font-face 
    font-family="SignPainter HouseScript"
    font-weight="400"
    font-stretch="normal"
    units-per-em="1000"
    panose-1="0 0 4 0 0 0 0 0 0 0"
    ascent="800"
    descent="-200"
    x-height="390"
    cap-height="625"
    bbox="-307 -392 1082.33 800"
    underline-thickness="20"
    underline-position="-123"
    unicode-range="U+0020-2122"
  />
<missing-glyph horiz-adv-x="500" 
d="M63 0v800h375v-800h-375zM125 63h250v675h-250v-675z" />
    <glyph glyph-name=".notdef" horiz-adv-x="500" 
d="M63 0v800h375v-800h-375zM125 63h250v675h-250v-675z" />
    <glyph glyph-name=".null" horiz-adv-x="0" 
 />
    <glyph glyph-name="nonmarkingreturn" horiz-adv-x="220" 
 />
    <glyph glyph-name="space" unicode=" " horiz-adv-x="220" 
 />
    <glyph glyph-name="exclam" unicode="!" horiz-adv-x="317" 
d="M356 615q6 9 13 9q19 0 19 -47q0 -48 -37 -115q-121 -219 -190 -367q-7 -15 -17 -4q-16 17 -16 47q0 27 13 62q31 83 94 206q66 129 121 209zM131 52q5 -12 5 -25q0 -47 -31 -47q-22 0 -36 22q-10 16 -10 34q0 16 8.5 31t23.5 15q26 0 40 -30z" />
    <glyph glyph-name="quotedbl" unicode="&#x22;" horiz-adv-x="318" 
d="M189 430q-12 -14 -22 -13q-12 2 -7 16q14 42 45 103q33 65 56 94q7 9 13 9q15 0 15 -29q0 -19 -13 -42q-51 -91 -87 -138zM213 385q-9 7 -2 20q75 129 136 189q7 7 14 7q10 0 12 -10q5 -28 -20 -63q-29 -41 -75 -91q-55 -59 -65 -52z" />
    <glyph glyph-name="numbersign" unicode="#" horiz-adv-x="510" 
d="M217 347q-54 -2 -104 -6q-7 -1 -10 3q-2 5 2 10q22 27 135 38q46 85 87 152q6 10 11 10q11 0 11 -24q0 -32 -48 -135q45 3 93 3q58 104 92 151q6 8 11 8q10 0 10 -23q0 -36 -31 -96q-7 -13 -21 -40q61 0 91 -4q13 -2 13 -7q0 -4 -4 -8q-29 -30 -113 -30h-14l-79 -142
q61 1 109 -2q13 -1 13 -7q0 -4 -4 -8q-31 -31 -112 -31h-32q-41 -75 -73 -143q-6 -13 -14 0q-5 8 -5 23q0 38 39 119q-33 0 -93 -2q-37 -74 -62 -128q-6 -13 -14 0q-5 8 -5 25q0 34 28 100q-65 -4 -98 -7q-9 -1 -10 2q-2 3 2 9q17 25 81 35q22 3 45 6q27 62 73 149zM367 349
h-90q-12 -23 -77 -147q29 2 93 4q32 66 74 143z" />
    <glyph glyph-name="dollar" unicode="$" horiz-adv-x="351" 
d="M290 499q26 45 60 102q6 10 10 10q14 0 14 -29q0 -38 -40 -107q34 -29 34 -64q0 -24 -17 -60q-16 -32 -31 -64q-7 -16 -22 -6q-25 16 -25 44q0 17 9 39q1 2 19 40q11 24 11 35q0 14 -13 14q-31 0 -80 -41q-56 -46 -58 -94q-1 -24 40 -51q33 -20 67 -41q19 -14 19 -35
q0 -26 -27.5 -56t-79.5 -30q-20 0 -40 6q-16 -32 -47 -95q-7 -13 -14 -3t-7 26q0 19 11 48l16 41q-38 22 -70 67q-9 13 6 16q32 7 64 -17q20 -16 42.5 -32.5t49.5 -18.5q14 -1 29.5 5.5t15.5 19.5q0 9 -10 18q-40 25 -79 50q-56 37 -55 77q1 59 49 112q40 45 97 69
q24 10 52 5z" />
    <glyph glyph-name="percent" unicode="%" horiz-adv-x="596" 
d="M478 469q-52 -3 -96 26q0 -65 -48 -138q-52 -81 -114 -81q-43 0 -72 42q-19 27 -19 63q0 52 36 113q55 95 129 97q33 1 52 -28q36 -54 111 -54q59 0 91 35q13 14 20 14q5 0 7 -10q8 -45 -50 -113q-87 -101 -175 -202q-126 -148 -183 -232q-11 -16 -17 2q-3 8 -3 18
q0 31 26 72q69 110 305 376zM425 -19q-42 0 -71 39q-20 27 -20 66q0 51 33 109q56 97 125 102q33 2 54 -26q13 -15 26 -31q13 -19 10 -55q-5 -64 -48 -129q-50 -75 -109 -75zM314 547q-19 0 -48 -25.5t-51 -61.5q-35 -59 -35 -110q0 -34 22 -34q43 0 88 78q43 74 43 126
q0 27 -19 27zM514 252q-19 0 -47.5 -25.5t-49.5 -62.5q-33 -58 -33 -109q0 -36 24 -36q43 0 86 81q38 71 38 124q0 28 -18 28z" />
    <glyph glyph-name="ampersand" unicode="&#x26;" horiz-adv-x="523" 
d="M337 142q-16 -3 -46 -8q-71 -7 -93 40q-3 7 -1 11q2 5 11 5q34 0 103 15q75 16 102 18q66 4 90 -48q2 -9 0 -13t-10 -3q-42 5 -101 -6q2 -9 2 -19q0 -42 -36 -89q-29 -38 -74 -63q-49 -26 -98 -26q-61 0 -108.5 41.5t-47.5 103.5q0 67 52 128.5t133 84.5q-56 19 -59 78
q-3 67 60 132q54 55 114 74q42 13 68 13q38 0 74 -28t36 -65q0 -22 -15 -53q-17 -44 -43 -101q-5 -8 -19 -1q-29 15 -29 56q0 19 7 39.5t24 54.5q13 26 13 35q0 18 -20 18q-49 0 -122 -60q-81 -66 -77 -127q3 -47 73 -45q58 1 74 -42q5 -13 -11 -14q-111 -9 -191.5 -68
t-82.5 -131q-1 -31 17 -52t50 -23q42 -3 92 31q58 39 89 107z" />
    <glyph glyph-name="quotesingle" unicode="'" horiz-adv-x="241" 
d="M184 429q-10 -9 -20 -7q-9 1 -4 17q19 45 55 114q50 92 67 92q14 0 14 -26q0 -20 -14 -44q-72 -122 -98 -146z" />
    <glyph glyph-name="parenleft" unicode="(" horiz-adv-x="228" 
d="M346 643q16 10 19 -7q9 -54 -69 -123q-95 -85 -149 -212q-57 -133 -57 -291q0 -33 3 -67q0 -6 -3 -8q-4 -1 -8 2q-21 13 -28 54q-8 48 -8 99q0 161 74 306q81 156 226 247z" />
    <glyph glyph-name="parenright" unicode=")" horiz-adv-x="245" 
d="M279 633q13 -61 13 -125q0 -162 -79 -318q-72 -142 -176 -218q-43 -32 -79 -32q-6 0 -7 4q-1 3 4 7q135 114 207 274q65 145 59 282q-4 100 40 134q14 11 18 -8z" />
    <glyph glyph-name="asterisk" unicode="*" horiz-adv-x="366" 
d="M429 531q-7 -32 -50 -44q-19 -5 -70 -16q17 -29 49 -74q11 -13 -9 -15q-27 -2 -50 27q-7 9 -22 29q-33 -55 -48 -90q-5 -12 -15 -1q-9 11 -9 28q0 15 7 34q4 13 17 43q-28 -6 -76 -19q-7 -2 -11 0q-3 3 -2 9q6 29 48 44q14 5 46 15q-18 28 -50 83q-8 15 8 17q34 3 58 -37
q7 -9 22 -32q28 55 65 115q5 8 15 2q13 -9 13 -30q0 -17 -10 -37q-8 -15 -32 -59q49 12 92 20q9 2 12.5 -1t1.5 -11z" />
    <glyph glyph-name="plus" unicode="+" horiz-adv-x="314" 
d="M250 314q62 -1 71 -54q1 -8 0 -10q-2 -4 -11 -3q-39 4 -97 -2q-39 -66 -52 -99q-4 -18 -18 -7q-20 16 -20 44q0 25 15 56h-2q-62 1 -74 53q-2 7 0.5 11t11.5 3q36 -3 98 3l54 97q9 16 23 1q14 -16 14 -42q0 -23 -13 -51z" />
    <glyph glyph-name="comma" unicode="," horiz-adv-x="239" 
d="M86 -16q-18 9 -18 34q0 22 16 41.5t38 18.5q31 -1 31 -43q0 -30 -22.5 -56.5t-52.5 -26.5q-10 0 -19 4q-5 2 -5 6q1 4 5 6q16 6 27 16z" />
    <glyph glyph-name="hyphen" unicode="-" horiz-adv-x="325" 
d="M118 199q-63 3 -73 53q-2 8 0 11t10 3q31 -2 90 3q67 5 84 5q64 0 75 -52q2 -7 -0.5 -11t-10.5 -3q-16 1 -32 1q-30 0 -79 -5q-45 -6 -64 -5z" />
    <glyph glyph-name="hyphen" unicode="&#x2010;" horiz-adv-x="325" 
d="M118 199q-63 3 -73 53q-2 8 0 11t10 3q31 -2 90 3q67 5 84 5q64 0 75 -52q2 -7 -0.5 -11t-10.5 -3q-16 1 -32 1q-30 0 -79 -5q-45 -6 -64 -5z" />
    <glyph glyph-name="period" unicode="." horiz-adv-x="223" 
d="M107 80q31 0 31 -36q0 -13 -6 -26q-15 -37 -47 -37q-30 0 -30 37q0 22 15.5 42t36.5 20z" />
    <glyph glyph-name="slash" unicode="/" horiz-adv-x="396" 
d="M549 645q7 7 13 7q12 0 12 -27q0 -50 -62 -123q-112 -122 -224 -243q-178 -196 -239 -289q-11 -17 -19 2q-4 11 -4 24q0 30 21 69q41 76 230 290q168 190 272 290z" />
    <glyph glyph-name="zero" unicode="0" horiz-adv-x="489" 
d="M400 239q62 127 62 231q0 98 -53 98q-43 0 -108 -53q-72 -59 -126 -153q-67 -115 -67 -224q0 -114 69 -114q50 0 111 57q65 61 112 158zM441 588q83 -31 83 -153q0 -104 -55 -217q-50 -103 -114 -164q-73 -69 -149 -69q-25 0 -51 8q-111 36 -113 171q-2 141 96 279
q85 119 176 158q31 13 60 13q42 0 67 -26z" />
    <glyph glyph-name="one" unicode="1" horiz-adv-x="218" 
d="M199 479q-42 -2 -42 10q0 5 6 11q33 32 96 96q13 12 26 0q22 -19 22 -48q0 -33 -29 -88q-58 -107 -116 -213q-83 -155 -132 -272q-7 -17 -18 -4q-16 18 -16 49q0 26 11 62q35 112 192 397z" />
    <glyph glyph-name="two" unicode="2" horiz-adv-x="423" 
d="M84 52q75 23 136 24q72 2 89 -48q3 -8 1 -11q-2 -4 -11 -4q-41 1 -124 -12q-76 -13 -123 -27q-34 -10 -50 7q-29 32 -29 58q0 12 20 24q178 107 312.5 242.5t134.5 210.5q0 19 -11 33.5t-29 14.5q-55 0 -134 -120q-46 -70 -100 -67q-15 1 -10 16q16 47 55 100
q49 68 102 95q31 16 64 16q48 0 82.5 -34.5t34.5 -82.5q0 -41 -25 -91q-34 -68 -134 -162q-116 -110 -251 -182z" />
    <glyph glyph-name="three" unicode="3" horiz-adv-x="429" 
d="M472 415q-48 -63 -136 -100q31 -7 46 -20q30 -26 30 -70q0 -67 -67 -150q-73 -90 -176 -90q-54 0 -93 26q-60 39 -60 108q0 26 9 47q27 65 82 65q17 0 8 -14q-40 -64 -40 -117q0 -41 25 -57q17 -11 40 -11q77 0 147 88q59 74 59 123q0 38 -42 38q-7 0 -41 -5
q-27 -5 -44 -1q-24 6 -43 28q-11 13 9 19q125 37 204 107q69 61 69 111q0 17 -11 29t-28 12q-44 0 -116 -90q-46 -57 -93 -57q-7 0 -15 1q-17 3 -10 18q22 45 65.5 90.5t80.5 63.5q29 14 63 14q53 0 84 -31q34 -35 34 -77q0 -45 -40 -98z" />
    <glyph glyph-name="four" unicode="4" horiz-adv-x="426" 
d="M440 512q-237 -163 -346 -280q105 27 201 32q77 149 145 248zM371 252q29 -15 37 -43q2 -7 -1 -10t-10 -2q-23 4 -54 3q-71 -131 -106 -218q-7 -18 -17 -4q-17 25 -17 53q0 24 11 56q13 37 46 106q-83 -11 -146 -26q-23 -5 -34 8q-14 17 -35 57q-9 17 4 32q60 71 185 173
q118 97 219 162q12 7 21 7q11 0 18 -10q16 -26 28 -47q8 -15 8 -23q0 -10 -16 -35q-56 -86 -141 -239z" />
    <glyph glyph-name="five" unicode="5" horiz-adv-x="415" 
d="M552 556q-40 0 -118 -14.5t-116 -14.5q-33 -49 -99 -153q25 10 54 10q49 0 79 -23q49 -37 49 -101t-51 -149q-74 -123 -194 -123q-42 0 -77 18q-64 34 -64 107q0 27 10 53q22 60 82 65q6 0 8 -4t-2 -10q-38 -59 -38 -116q0 -71 56 -71q37 0 83 36t76 87q43 74 43 133
q0 57 -46 57q-62 0 -117 -74q-10 -13 -20 -1q-18 21 -18 51q0 53 115 234q-11 11 -17 30q-2 7 1 10t11 3q53 -2 135 12q88 15 105 15q61 1 80 -54q5 -13 -10 -13z" />
    <glyph glyph-name="six" unicode="6" horiz-adv-x="401" 
d="M484 528q-3 -78 -42 -157q-7 -14 -21 -5q-25 17 -25 58q0 26 11 56q23 62 23 81q0 11 -7 12q-35 4 -102 -50q-80 -64 -143 -172q37 23 76 23q55 0 91.5 -40t36.5 -96q0 -60 -40 -133q-66 -118 -162 -118q-40 0 -76 21q-69 40 -69 146q0 104 69 226q61 108 143 174
q54 44 105 60q19 6 39 6q33 0 57 -16q38 -25 36 -76zM107 166q-7 -27 -7 -52q0 -58 29 -76q10 -6 23 -6q32 0 69 32t63 85q35 71 35 122q0 59 -48 59q-44 0 -89 -39q-54 -46 -75 -125z" />
    <glyph glyph-name="seven" unicode="7" horiz-adv-x="337" 
d="M383 536q-40 -9 -81 -18q-49 -12 -81 -12q-66 0 -83 55q-4 12 11 12q47 0 120 12q95 16 103 17q33 3 46 -16q32 -47 32 -76q0 -11 -22 -32q-91 -86 -209 -233q-123 -152 -190 -263q-9 -14 -18 0q-8 13 -8 32q0 34 25 82q45 85 157.5 225t197.5 215z" />
    <glyph glyph-name="eight" unicode="8" horiz-adv-x="388" 
d="M277 327q13 -25 38 -76q27 -59 27 -105q0 -67 -54.5 -122.5t-145.5 -55.5q-40 0 -69 14q-68 33 -68 105q0 114 180 258q-29 64 -24 101q8 67 67 113.5t128 46.5q47 0 76.5 -27t25.5 -78q40 10 62 -3q15 -9 -1 -18q-127 -68 -242 -153zM396 477q3 42 -12 69.5t-48 21.5
q-37 -7 -67.5 -44.5t-30.5 -77.5q0 -24 11 -54q75 52 147 85zM216 279q-102 -86 -134 -157q-15 -32 -15 -58q0 -35 27 -48q14 -7 33 -7q50 0 89 41q46 48 46 95q0 43 -46 134z" />
    <glyph glyph-name="nine" unicode="9" horiz-adv-x="414" 
d="M361 369q29 72 29 126q0 68 -40 68q-31 0 -73.5 -39t-72.5 -96q-37 -70 -37 -125q0 -67 53 -67q37 0 76.5 35.5t64.5 97.5zM308 220q-36 -21 -75 -21q-32 0 -63 15q-67 33 -67 118q0 59 38 130q77 142 182 142q33 0 64 -16q66 -33 66 -130q0 -106 -77 -262
q-111 -224 -254 -227q-50 -1 -85 22q-43 29 -46 87t40 84q10 6 15 5q6 -1 4 -11q-8 -35 -8 -63q0 -85 63 -85q44 0 96 52q56 56 107 160z" />
    <glyph glyph-name="colon" unicode=":" horiz-adv-x="255" 
d="M246 379q30 0 30 -36q0 -12 -5 -25q-15 -37 -46 -37t-31 36q0 22 16 42t36 20zM43 43q18 37 47 37q30 0 30 -36q0 -13 -5 -26q-15 -37 -47 -37q-30 0 -30 38q0 13 5 24z" />
    <glyph glyph-name="semicolon" unicode=";" horiz-adv-x="264" 
d="M256 379q30 0 30 -37q0 -22 -15.5 -41.5t-35.5 -19.5q-31 0 -31 36q0 21 16 41.5t36 20.5zM63 -16q-17 9 -17 32t16.5 43t38.5 19q30 -1 30 -42q0 -12 -5 -26q-8 -24 -28 -41t-42 -17q-10 0 -19 4q-5 2 -5 6t5 6q15 5 26 16z" />
    <glyph glyph-name="less" unicode="&#x3c;" horiz-adv-x="288" 
d="M158 267q37 -20 57 -38q31 -27 25 -63q-3 -18 -18 -7q-34 25 -121 68q-21 10 -28 53q-3 20 17 27q115 39 187 87q16 11 16 -9q0 -37 -37 -66q-26 -20 -98 -52z" />
    <glyph glyph-name="equal" unicode="=" horiz-adv-x="361" 
d="M173 290q-61 1 -72 54q-2 8 0.5 10.5t10.5 2.5q28 -2 90 3t84 4q65 -4 74 -55q1 -8 -1.5 -11.5t-11.5 -2.5q-21 2 -43 2q-27 0 -70.5 -3.5t-60.5 -3.5zM126 182q-63 3 -74 54q-2 8 0 11q3 4 11 3q29 -2 89 4q64 6 84 5q64 -3 75 -54q2 -7 -0.5 -11t-10.5 -3q-16 1 -32 1
q-30 0 -76.5 -5.5t-65.5 -4.5z" />
    <glyph glyph-name="greater" unicode="&#x3e;" horiz-adv-x="290" 
d="M192 276q-40 21 -61 40q-31 28 -26 65q3 19 18 8q68 -49 147 -82q13 -6 13 -15q0 -6 -4 -15q-20 -42 -44 -51q-56 -21 -159 -67q-14 -7 -15 10q-2 33 38 62q31 23 93 45z" />
    <glyph glyph-name="question" unicode="?" horiz-adv-x="385" 
d="M194 528q63 102 157 102q36 0 66 -20q53 -35 53 -105q0 -44 -22 -90q-43 -89 -185 -167q-89 -49 -115 -145q-4 -17 -18 -3q-17 17 -17 48q0 21 10 45q25 59 125.5 117t144.5 151q21 44 21 79q0 31 -20 42q-10 5 -21 5q-39 0 -88.5 -52.5t-87.5 -129.5q-5 -10 -10 -10
q-9 0 -15 21q-5 16 -5 28q0 41 27 84zM130 52q6 -15 6 -30q0 -42 -32 -42q-22 0 -35 22q-9 16 -9 34q0 17 7 30q10 17 25 17q26 0 38 -31z" />
    <glyph glyph-name="at" unicode="@" horiz-adv-x="586" 
d="M326 165q-47 -55 -96 -55q-31 0 -48.5 22t-17.5 58q0 58 42 119q89 129 168 129q22 0 35.5 -14.5t15.5 -34.5q8 14 26 39q11 12 18 5q12 -12 12 -38q0 -24 -12 -50q-29 -48 -76 -137q-15 -34 -15 -56q0 -18 10 -20q18 -4 44 24q31 33 59 97.5t28 127.5q0 98 -60 124
q-20 8 -44 8q-55 0 -116 -37q-66 -41 -118 -113q-67 -94 -67 -192q0 -95 61 -123q22 -10 50 -10q74 0 125 49q15 14 15 -4q0 -40 -38 -62q-33 -19 -79 -19q-41 0 -75 13q-111 43 -113 175q-2 130 101 245q90 101 185 122q23 5 45 5q57 0 92 -36q91 -42 91 -160
q0 -60 -24 -119q-28 -70 -72 -109t-88 -36q-61 4 -64 63zM385 396q-20 1 -56 -32q-38 -36 -70 -87q-39 -63 -39 -108q0 -28 19 -29q44 -1 113 117q46 79 46 119q0 19 -13 20z" />
    <glyph glyph-name="A" unicode="A" horiz-adv-x="442" 
d="M313 157q-20 -1 -108 -10q-64 -7 -91 -6q-47 -80 -76 -144q-7 -16 -18 -2q-10 13 -10 36q0 46 42 123q-25 14 -33 34q-4 10 -2 13q3 4 14 2q29 -4 45 -5q66 115 151 229q98 131 172 192q12 10 20 10t15 -9.5t24 -42.5q13 -33 0 -73q-48 -144 -73 -291q37 -12 45 -51
q1 -7 -1 -9q-3 -2 -10 0q-15 4 -43 6q-13 -96 -15 -160q0 -16 -15 -9q-36 16 -37 91q0 32 4 76zM152 201q61 8 169 17q28 191 74 308q-124 -139 -243 -325z" />
    <glyph glyph-name="B" unicode="B" horiz-adv-x="454" 
d="M213 511q-51 3 -68 40q-7 16 10 17q35 3 114 30t113 29q95 6 118 -81q7 -26 7 -51q0 -62 -42 -116q-60 -78 -156 -119q29 -14 48 -42q13 -20 13 -49q0 -48 -36 -88q-67 -74 -175 -93q-54 -10 -84 5t-51 46q-16 23 -16 42q0 22 14 60q65 182 191 370zM167 288
q128 30 217 104q82 68 82 126q0 43 -45 43q-26 0 -71 -15q-38 -12 -75 -25q3 -37 -30 -98q-24 -42 -78 -135zM244 238q-21 -5 -42 -7q-39 -5 -62 7q-48 -92 -67 -155q-4 -13 -4 -22q0 -26 36 -21q50 6 104 34q58 30 89 68q23 29 23 51q0 41 -77 45z" />
    <glyph glyph-name="C" unicode="C" horiz-adv-x="462" 
d="M388 206q4 8 10 8q17 0 17 -42q0 -39 -30 -82q-25 -35 -57 -58q-57 -41 -125 -41q-47 0 -83.5 19.5t-59.5 62.5q-26 47 -27 106q-3 145 99 281q88 117 187 155q44 17 77 17q35 0 58 -20q41 -36 53 -73q5 -16 5 -32q0 -27 -14 -56q-12 -24 -40 -99q-6 -16 -22 -6
q-30 20 -30 60q0 26 21 77.5t21 71.5q0 27 -25 27q-44 0 -116 -55q-82 -62 -136 -151q-66 -110 -66 -219q0 -85 37 -115q21 -18 49 -18q47 0 100.5 48.5t96.5 133.5z" />
    <glyph glyph-name="D" unicode="D" horiz-adv-x="483" 
d="M210 501q-50 3 -65 42q-6 17 10 19q31 4 103 34q64 27 103 27q78 0 129 -90q24 -43 24 -98q0 -125 -107 -254q-111 -136 -271 -189q-17 -6 -30 -6q-19 0 -34 13q-27 23 -43 44.5t-16 41.5q0 21 14 63q22 68 77 173q52 100 106 180zM263 511q2 -8 2 -17q0 -39 -28 -88
l-88 -156q-54 -99 -72 -158q-6 -20 -6 -32q0 -17 14 -17q6 0 16 4q159 60 263 199q91 122 91 226q0 36 -15 60t-44 24q-22 0 -63 -17z" />
    <glyph glyph-name="E" unicode="E" horiz-adv-x="368" 
d="M218 525q-32 13 -42 51q-2 7 0.5 9.5t10.5 2.5q48 -3 135 10q96 15 114 15q58 1 76 -49q2 -7 0 -10q-3 -4 -11 -3q-45 1 -106 -9q-48 -9 -97 -18q-46 -69 -138 -236q35 6 71 8q66 3 82 -45q5 -15 -10 -15q-73 0 -185 -28q-47 -90 -77 -158q90 28 155 31q68 3 85 -44
q3 -7 1 -11q-3 -4 -11 -4q-67 1 -221 -40q-28 -7 -42 10q-4 4 -21 37q-12 22 1 57q73 197 230 439z" />
    <glyph glyph-name="F" unicode="F" horiz-adv-x="363" 
d="M214 526q-30 14 -39 51q-2 6 1 9t10 3q46 -2 134.5 11.5t110.5 13.5q61 0 82 -51q3 -6 0 -11q-3 -4 -12 -4q-46 1 -108 -10l-98 -18q-61 -99 -131 -228q30 6 67 8q68 4 84 -48q2 -7 0 -11t-11 -4q-66 1 -184 -28q-69 -135 -104 -216q-6 -13 -17 -4q-20 17 -20 50
q0 25 12 60q49 144 223 427z" />
    <glyph glyph-name="G" unicode="G" horiz-adv-x="500" 
d="M412 192q4 -13 4 -26q0 -57 -58 -113q-48 -47 -92 -59q-39 -11 -71 -11q-55 0 -96 31q-66 50 -67 154q-1 147 113 288q99 121 200 154q41 13 71 13q43 0 76 -28q45 -41 45 -96q0 -25 -12 -53q-19 -43 -39 -96q-4 -10 -11 -10q-5 0 -10 5q-31 21 -31 62q0 15 5 33
q4 14 21 59q14 34 14 50q0 26 -28 26q-47 0 -125 -56q-87 -62 -144 -149q-76 -117 -76 -237q0 -69 26 -94q17 -16 43 -16q46 0 100.5 45.5t89.5 115.5q-61 -11 -88 -14q-70 -7 -96 48q-8 16 10 16q41 0 114 13t101 14q68 1 91 -51q4 -9 2 -13q-3 -4 -12 -3q-25 3 -70 -2z
" />
    <glyph glyph-name="H" unicode="H" horiz-adv-x="488" 
d="M558 465q-34 -60 -112 -199q30 -13 39 -44q1 -7 -1.5 -9.5t-9.5 -1.5q-24 5 -56 3q-58 -111 -102 -212q-7 -16 -17 -2q-15 21 -15 49q0 26 12 61q10 31 42 96q-178 -22 -197 -22q-52 -104 -91 -195q-8 -18 -18 -4q-15 21 -15 50q0 25 10 60q4 14 43 102q-23 11 -34 32
q-5 9 -2 12q3 4 15 3q48 -3 42 -3q128 266 198 364q6 8 12 8q20 0 20 -47q0 -46 -34 -109.5t-113 -210.5q66 13 197 30q130 258 193 341q7 9 13 9q19 0 19 -46t-38 -115z" />
    <glyph glyph-name="I" unicode="I" horiz-adv-x="182" 
d="M269 616q6 9 12 9q20 0 20 -48t-38 -115q-79 -139 -118 -212q-80 -147 -127 -254q-6 -13 -16 -2q-16 18 -16 50q0 27 12 61q35 98 124 263q83 156 147 248z" />
    <glyph glyph-name="J" unicode="J" horiz-adv-x="437" 
d="M66 229q17 4 17 -9q0 -5 -2 -11q-23 -67 -23 -114q0 -82 61 -82q54 0 114 87q34 51 99 185q127 262 172 331q6 9 12 9q11 0 18 -24q5 -18 5 -33q0 -36 -18 -78q-27 -65 -84 -179q-63 -125 -101 -189q-85 -142 -202 -142q-19 0 -39 4q-46 8 -73.5 41.5t-27.5 81.5
q0 22 6 45q17 66 66 77z" />
    <glyph glyph-name="K" unicode="K" horiz-adv-x="397" 
d="M125 210q-50 -95 -103 -219q-7 -16 -16 -3q-15 21 -15 50q0 25 10 60q19 64 115.5 255t142.5 254q6 9 12 9q10 0 17 -22q5 -17 5 -30q0 -46 -33 -105l-95 -173q213 159 366 326q12 13 19 -2q3 -10 3 -21q0 -38 -34.5 -84.5t-123.5 -125.5q-93 -82 -192 -152
q56 -89 71 -124.5t15 -64.5t-15 -47q-10 -13 -18 2q-56 109 -131 217z" />
    <glyph glyph-name="L" unicode="L" horiz-adv-x="353" 
d="M55 56q87 23 152 28q69 6 88 -45q3 -7 1 -11t-11 -4q-62 1 -218 -39q-32 -8 -45 10q-21 30 -26 43q-10 24 3 58q35 90 132 271q94 175 142 241q6 8 12 8q20 0 20 -48q0 -43 -33 -103l-100 -180q-71 -128 -117 -229z" />
    <glyph glyph-name="M" unicode="M" horiz-adv-x="573" 
d="M269 435q-189 -284 -260 -447q-6 -14 -17 -2q-15 17 -15 47q0 28 13 62q27 70 127 235q98 161 180 274q9 12 18 12q7 0 14 -6q38 -33 38 -76q0 -29 -14 -72q-56 -170 -106 -353q57 94 182 252q132 166 183 246q7 11 15 11q6 0 14 -8q27 -27 27 -66q0 -36 -24 -80
q-152 -282 -220 -476q-4 -13 -16 -3q-19 16 -19 53q0 24 8 56q24 93 144 324q-212 -257 -302 -425q-8 -14 -18 -7q-41 30 -41 86q0 16 3 35q21 132 86 328z" />
    <glyph glyph-name="N" unicode="N" horiz-adv-x="459" 
d="M239 429q-170 -292 -217 -435q-6 -17 -17 -4q-17 19 -17 53q0 27 12 59q66 180 259 505q12 19 26 9q39 -28 39 -76q0 -19 -5 -48q-22 -131 -33 -360q112 254 258 479q5 8 11 8q7 0 12 -10q9 -17 9 -37q0 -42 -40 -108q-48 -79 -123 -222q-80 -154 -122 -249
q-6 -14 -20 -6q-43 23 -49 104q-10 125 17 338z" />
    <glyph glyph-name="O" unicode="O" horiz-adv-x="537" 
d="M476 597q85 -37 85 -159q0 -112 -64 -230q-55 -101 -123 -161q-77 -67 -156 -67q-32 0 -64 12q-114 42 -114 187q0 146 108 284q93 119 192 154q29 10 57 10q50 0 79 -30zM424 236q71 131 71 241q0 99 -57 99q-47 0 -116 -51q-77 -56 -136 -148q-77 -120 -77 -237
q0 -116 76 -116q53 0 119.5 57.5t119.5 154.5z" />
    <glyph glyph-name="P" unicode="P" horiz-adv-x="425" 
d="M206 509q-46 5 -63 42q-8 16 10 18q41 4 119 29q73 24 107 25q89 4 119 -83q9 -26 9 -54q0 -56 -39 -117t-114 -109q-80 -51 -175 -69q-34 -6 -62 10q-42 -83 -93 -204q-6 -14 -16 -3q-17 17 -17 50q0 22 8 49q19 68 80 190t127 226zM146 257q140 26 232 111
q81 73 81 140q0 48 -46 48q-25 0 -71 -16q-37 -12 -74 -25q0 -44 -38 -110q-27 -46 -84 -148z" />
    <glyph glyph-name="Q" unicode="Q" horiz-adv-x="543" 
d="M226 -16q49 -25 97 -50q55 -25 94 -25q12 0 24 2t13 -2q2 -4 -3 -10q-29 -38 -90 -38q-30 0 -58 9.5t-124 64.5q-72 41 -129 41q-24 0 -49 -6q-7 -2 -10 2t1 9q30 41 108 38h7q-70 53 -70 162q0 145 107 282q92 117 189 151q31 11 59 11q49 0 79 -31q82 -37 82 -157
q0 -111 -63 -230q-51 -96 -117 -155q-72 -64 -147 -68zM417 235q71 132 71 242q0 98 -57 98q-47 0 -115 -50q-75 -57 -134 -148q-76 -118 -76 -235q0 -116 76 -116q52 0 117.5 56.5t117.5 152.5z" />
    <glyph glyph-name="R" unicode="R" horiz-adv-x="458" 
d="M129 195q-45 -87 -89 -198q-6 -15 -16 -4q-16 17 -16 50q0 22 7 49q19 68 80 191.5t127 227.5q-45 4 -64 40q-8 15 11 17q41 5 119 30q72 23 107 24q89 4 119 -81q10 -28 10 -57q0 -60 -40.5 -114.5t-115 -98t-158.5 -63.5q68 -85 95 -137q13 -25 13 -50q0 -19 -8 -31.5
t-16 -1.5q-91 125 -165 207zM283 517q0 -44 -38 -113q-13 -24 -39 -69t-40 -70q139 31 229 109q80 69 80 133q0 13 -4 24q-10 25 -44 25q-24 0 -71 -15q-36 -12 -73 -24z" />
    <glyph glyph-name="S" unicode="S" horiz-adv-x="444" 
d="M-33 134q13 4 28 4q42 0 73 -25q104 -84 173 -84q41 0 62 18q11 12 11 26q0 15 -13 26q-63 42 -125 83q-86 63 -86 127q0 92 89 183q71 73 155 109q42 18 74 18q33 0 55 -20q52 -48 52 -104q0 -37 -30 -78.5t-70 -112.5q-5 -9 -11 -9q-13 0 -23 23q-9 20 -9 34
q0 21 11 46q5 12 45 74q32 49 32 69q0 18 -21 18q-57 0 -157 -82q-109 -89 -112 -166q-2 -40 68 -88q57 -35 113 -70q26 -18 26 -47q0 -35 -37 -77q-44 -50 -129 -50q-136 0 -246 132q-15 18 2 23z" />
    <glyph glyph-name="T" unicode="T" horiz-adv-x="403" 
d="M276 525q-34 -6 -61 -7q-96 -4 -114 57q-2 7 1 10.5t10 2.5q50 -4 168 12q123 17 144 16q76 -2 95 -51q3 -7 0 -11q-3 -5 -12 -4q-13 1 -28 1q-48 0 -142 -16q2 -43 -33 -106q-52 -94 -105 -188q-69 -128 -118 -244q-6 -13 -16 -3q-19 18 -19 53q0 18 6 38q17 63 86 198
q70 139 138 242z" />
    <glyph glyph-name="U" unicode="U" horiz-adv-x="452" 
d="M76 -12q-76 31 -76 120q0 27 8 60q34 140 232 439q5 8 12 8q6 0 12 -9q11 -18 11 -42q0 -38 -30 -97q-48 -85 -97 -171q-63 -114 -78 -179q-7 -28 -7 -49q0 -41 27 -51q10 -4 21 -4q85 0 190 203q127 246 219 392q5 9 12 9q20 0 20 -48q0 -39 -21 -86q-30 -67 -101 -194
q-79 -142 -125 -206q-76 -106 -174 -106q-28 0 -55 11z" />
    <glyph glyph-name="V" unicode="V" horiz-adv-x="403" 
d="M100 78q69 116 201 291q125 166 195 240q7 7 13 7q12 0 12 -30q0 -49 -57 -124q-78 -101 -156 -203q-118 -156 -191 -269q-7 -11 -14 -11q-6 0 -14 6q-47 35 -47 102q0 14 2 32q13 116 44.5 264t58.5 220q5 13 11 13q5 0 11 -7q20 -24 20 -64q0 -30 -10 -77
q-27 -118 -79 -390z" />
    <glyph glyph-name="W" unicode="W" horiz-adv-x="630" 
d="M395 406q-166 -218 -291 -416q-7 -11 -16 -11q-7 0 -14 6q-35 31 -35 79q0 25 8 59q27 113 78 259t88 217q6 12 14 12q6 0 11 -8q12 -21 12 -47q0 -35 -22 -95q-41 -110 -125 -362q150 245 350 487q13 16 25 -1q17 -25 17 -51q0 -28 -17 -79q-42 -127 -54 -161
q-33 -106 -58 -200q74 120 196 285q119 159 187 231q8 8 14 8q11 0 11 -28q0 -51 -59 -129q-76 -100 -153 -199q-113 -150 -189 -267q-8 -12 -16 -12q-6 0 -14 7q-37 34 -37 85q0 23 6 53q23 106 83 278z" />
    <glyph glyph-name="X" unicode="X" horiz-adv-x="399" 
d="M280 387q155 158 228 226q7 6 12 6q13 0 13 -28q0 -59 -68 -123q-54 -51 -173 -168q32 -228 73 -297q5 -8 2 -14q-3 -5 -11 -4q-74 6 -103 128q-12 51 -24 122q-139 -142 -213 -245q-10 -14 -16 2q-5 13 -5 28q0 35 27 77q37 58 193 223q-28 195 -50 282q-2 7 1.5 11
t11.5 3q54 -9 77 -89q8 -30 25 -140z" />
    <glyph glyph-name="Y" unicode="Y" horiz-adv-x="379" 
d="M174 197q-58 -104 -95 -207q-5 -15 -19 -3q-18 15 -18 52q0 22 8 48q15 51 62 145q4 244 29 370q4 22 21 11q40 -25 35 -116q-5 -60 -15 -196q158 175 313 311q6 5 11 5q12 0 12 -28q0 -51 -63 -113q-61 -58 -121 -116q-84 -81 -160 -163z" />
    <glyph glyph-name="Z" unicode="Z" horiz-adv-x="441" 
d="M54 50q110 28 177 34q68 6 88 -43q6 -15 -10 -15q-85 0 -236 -41q-19 -5 -27 -5q-14 0 -23.5 14.5t-23.5 40.5q-6 17 -6 25q0 12 11 29q62 92 214 238.5t263 222.5q-57 -12 -157 -29q-11 -1 -22 -1q-67 0 -84 52q-2 7 0 11q3 4 11 4q43 -1 123 11q97 15 109 16
q32 3 47 -17q19 -24 33 -65q3 -8 3 -13q0 -15 -26 -33q-108 -77 -243 -204q-128 -122 -221 -232z" />
    <glyph glyph-name="bracketleft" unicode="[" horiz-adv-x="316" 
d="M364 616q-83 -121 -177.5 -300t-153.5 -325q41 10 55 10q32 0 51 -34q9 -17 -9 -18q-40 -3 -91 -23q-20 -8 -35 9q-13 14 -24.5 33t-0.5 51q43 123 132 301q104 208 195 329q16 22 38 29q26 9 70 11q28 1 40.5 -10t24.5 -27q4 -5 1 -11q-3 -5 -12 -6q-56 -4 -104 -19z
" />
    <glyph glyph-name="backslash" unicode="\" horiz-adv-x="355" 
d="M157 633q-1 11 5 15q6 3 15 -2q49 -26 65 -138q52 -370 92 -534q2 -7 -1 -10.5t-11 -2.5q-42 8 -65.5 79.5t-56.5 271.5q-33 197 -43 321z" />
    <glyph glyph-name="bracketright" unicode="]" horiz-adv-x="319" 
d="M390 619q-17 -3 -50 -9q-27 -3 -55 36q-4 6 -4 11q0 9 14 11q111 17 118 17q19 0 29 -14l18 -36q9 -18 -1 -34q-190 -288 -349 -645q-11 -24 -31.5 -27t-58.5 -10q-30 -5 -46 5.5t-30 24.5t6 21q40 13 108 22q175 395 332 627z" />
    <glyph glyph-name="asciicircum" unicode="^" horiz-adv-x="267" 
d="M191 500q-33 -39 -89 -116q-8 -13 -18 -4q-13 12 -13 35q0 21 13 42q43 69 113 150q9 11 22 2q21 -15 25 -49q11 -94 29 -161q4 -14 -9 -15q-43 -3 -56 44q-11 41 -17 72z" />
    <glyph glyph-name="underscore" unicode="_" horiz-adv-x="366" 
d="M433 -72q18 0 12 -14q-16 -39 -80 -39h-432q-15 0 -11 14q5 16 26.5 27.5t52.5 11.5h432z" />
    <glyph glyph-name="grave" unicode="`" horiz-adv-x="77" 
d="M12 756q37 -10 49 -49q5 -32 15 -94q1 -7 -2 -9.5t-9 -1.5q-23 6 -38 40q-5 12 -27 103q-2 7 2 10t10 1z" />
    <glyph glyph-name="a" unicode="a" 
d="M324 325q22 41 36 61q8 11 15 11q11 0 18 -23q5 -17 5 -31q0 -31 -15 -62q-36 -60 -96 -173q-18 -41 -18 -67q0 -31 26 -30q29 2 68 45q34 38 63 94q9 17 16 1q10 -22 -9 -62q-20 -44 -61 -75q-43 -34 -83 -32q-82 5 -82 82q-61 -78 -125 -78q-39 0 -60.5 27t-21.5 71
q0 73 53 150q57 83 117 126q51 37 93 37q31 0 47 -20.5t14 -51.5zM237 170q59 102 59 150q0 23 -16 25q-25 2 -71 -41q-49 -45 -89 -110q-50 -80 -50 -139q0 -35 23 -36q56 -1 144 151z" />
    <glyph glyph-name="b" unicode="b" horiz-adv-x="352" 
d="M312 151q-73 -162 -167 -162q-76 0 -105 71q-10 -22 -29 -66q-7 -16 -16 -3q-16 22 -16 51q0 25 11 59q20 63 130.5 270t161.5 279q7 10 13 10q10 0 16 -21q5 -16 5 -29q0 -44 -35 -109q-29 -48 -89 -152q47 42 86 42q70 0 70 -93q0 -66 -36 -147zM263 350q-32 3 -73 -40
q-61 -63 -130 -207q5 -68 53 -68q58 0 128 139q41 82 41 135q0 39 -19 41z" />
    <glyph glyph-name="c" unicode="c" horiz-adv-x="311" 
d="M247 386q39 -23 55 -55q6 -12 6 -26q0 -22 -17 -59q-27 -61 -28 -64q-6 -16 -21 -8q-30 15 -30 54q0 15 6 33q4 12 19 45q12 26 12 36q0 11 -10 11q-20 0 -60 -41q-42 -44 -71 -102q-32 -65 -32 -118q0 -78 57 -79q104 -1 197 142q4 6 9 6q6 0 9 -7q8 -20 -18 -60
q-29 -45 -83 -76.5t-110 -32.5q-64 -1 -99.5 37t-35.5 99q0 55 30 115q37 74 91 118q49 40 92 40q18 0 32 -8z" />
    <glyph glyph-name="d" unicode="d" horiz-adv-x="401" 
d="M277 108q-20 -43 -20 -69q0 -29 26 -28q29 2 67 44q34 38 63 94q9 17 16 1q11 -23 -8 -62q-21 -43 -61 -74q-43 -33 -83 -31q-81 4 -81 80q-62 -77 -124 -77q-39 0 -60 27t-21 71q0 72 52 149q55 81 115 124q52 37 94 37q29 0 45 -19.5t15 -48.5q112 214 166 290
q7 10 13 10q7 0 11 -10q7 -18 7 -38q0 -44 -38 -113q-72 -125 -194 -357zM268 343q-24 1 -70 -42q-49 -44 -89 -108q-49 -79 -49 -137q0 -36 23 -37q63 -2 141 149q58 112 58 154q0 21 -14 21z" />
    <glyph glyph-name="e" unicode="e" horiz-adv-x="320" 
d="M92 171q-14 -41 -14 -76q0 -79 59 -82q103 -5 199 142q10 15 17 -1q10 -22 -17 -62q-32 -47 -85.5 -77t-110.5 -31q-64 -1 -100 37.5t-36 99.5q0 56 30 115q38 75 92 120q50 40 93 40q19 0 32 -8q36 -21 59 -52q9 -12 9 -34q0 -52 -41 -102q-50 -61 -107 -61
q-40 0 -79 32zM101 193q17 -11 34 -11q39 0 85 61q44 58 44 93q0 15 -13 15q-25 0 -67 -39q-46 -43 -75 -102q-3 -6 -8 -17z" />
    <glyph glyph-name="f" unicode="f" horiz-adv-x="245" 
d="M106 184q53 -17 52 -116q0 -12 -2 -34q60 40 104 127q5 9 11 9t10 -10q7 -19 -10 -60q-9 -22 -41 -53q-38 -37 -79 -51q-12 -76 -42 -151.5t-66 -120.5q-29 -36 -53 -36q-17 0 -36 16q-46 40 -46 111q0 134 142 414q102 203 229 392q6 8 13 8q9 0 12 -9q6 -18 6 -36
q0 -47 -40 -114q-55 -90 -164 -286zM101 18q8 38 9 72q1 26 -4.5 46.5t-11.5 18.5q-7 -3 -13 -33q-6 -26 -7 -47q-2 -51 27 -57zM34 29q-76 -180 -76 -256q0 -34 14 -34q22 0 61.5 79t61.5 171q-43 4 -61 40z" />
    <glyph glyph-name="g" unicode="g" horiz-adv-x="401" 
d="M415 90q-50 -79 -194 -131q-119 -290 -207 -325q-10 -4 -19 -4q-22 0 -39 25q-28 40 -28 77q0 22 8 47q39 122 214 189q10 23 29 69q-50 -50 -101 -50q-38 0 -59.5 26.5t-21.5 70.5q0 72 52 148q55 81 115 124q52 37 95 37q29 0 44.5 -19t14.5 -47l33 55q7 12 15 12
q12 0 19 -22q5 -17 5 -32q0 -30 -16 -62q-46 -90 -135 -278q106 53 179 150q5 6 10 6q5 -1 7 -8q4 -20 -20 -58zM231 168q59 102 59 150q0 23 -16 24q-24 2 -71.5 -42t-87.5 -107q-49 -78 -49 -137q0 -37 24 -38q54 -1 141 150zM133 -73q-76 -44 -122 -119q-38 -60 -38 -103
q0 -17 7 -17q18 0 62 67q49 73 91 172z" />
    <glyph glyph-name="h" unicode="h" horiz-adv-x="377" 
d="M399 91q-22 -44 -62 -75q-43 -32 -86 -32q-88 0 -88 81q0 29 13 67q17 49 64 128q42 69 42 78q0 3 -2 4q-13 8 -74 -39q-68 -52 -107 -116q-61 -100 -97 -190q-6 -16 -17 -4q-16 18 -16 46q0 25 12 60q26 74 145 276q117 199 179 277q7 8 13 8q18 0 18 -45
q0 -48 -35 -106q-10 -16 -120 -188q77 75 120 70q19 -2 34 -21t15 -45q0 -20 -10 -39q-35 -58 -93 -169q-16 -36 -16 -63q0 -42 33 -40q29 1 67 46q35 39 60 92q3 7 9 7t9 -6q10 -21 -10 -62z" />
    <glyph glyph-name="i" unicode="i" horiz-adv-x="201" 
d="M232 459q7 -14 7 -29q0 -46 -34 -46q-22 0 -36 23q-10 17 -10 35q0 16 9 31.5t24 15.5q25 0 40 -30zM69 -15q-79 0 -79 81q0 29 12 65q18 52 59 129q39 72 69 114q8 11 15 11q11 0 18 -22q5 -16 5 -30q0 -30 -15 -62q-32 -56 -84 -162q-16 -39 -16 -64q0 -32 26 -31
q32 2 71 44q35 39 59 93q8 15 16 0q12 -23 -7 -62q-22 -46 -64 -75t-85 -29z" />
    <glyph glyph-name="j" unicode="j" horiz-adv-x="178" 
d="M230 461q6 -15 6 -29q0 -45 -32 -45q-23 0 -36 24q-9 16 -9 34q0 16 8.5 31.5t24.5 15.5q25 0 38 -31zM9 -19q113 59 189 172q11 16 16 -1q6 -21 -15 -59q-49 -87 -208 -154q-125 -293 -210 -325q-12 -4 -21 -4q-20 0 -36 23q-31 46 -31 81q0 21 8 43q42 123 217 190
q123 296 211 430q8 12 14 12q11 0 18 -21q5 -15 5 -29q0 -31 -16 -66q-48 -96 -141 -292zM-99 -95q-75 -43 -122 -117q-39 -61 -39 -104q0 -18 8 -18q17 0 63 68q49 74 90 171z" />
    <glyph glyph-name="k" unicode="k" horiz-adv-x="367" 
d="M182 347q64 62 113 62q35 0 58 -49q11 -24 11 -47q0 -39 -32 -70q-58 -57 -139 -81q3 -61 22 -100.5t48 -42.5q28 -3 67 43q33 38 59 92q5 10 11 10q5 0 9 -9q10 -24 -12 -61q-62 -106 -149 -105q-57 1 -90 46q-38 51 -37 147q0 14 3.5 18t17.5 9q77 25 131 74
q46 42 46 71q0 17 -21 17q-34 0 -88.5 -41.5t-98.5 -117.5q-38 -66 -99 -212q-6 -15 -18 -2q-13 15 -13 43q0 27 12 67q23 73 119 259q100 196 164 282q7 10 14 10q20 0 20 -46q0 -41 -38 -106.5t-90 -159.5z" />
    <glyph glyph-name="l" unicode="l" horiz-adv-x="230" 
d="M98 200q-35 -86 -35 -137q0 -45 29 -48q35 -3 82 42q44 43 75 103q5 10 12 10t10 -10q7 -25 -10 -62q-15 -32 -59 -68q-55 -44 -108 -43q-90 2 -90 100q0 26 7 58q26 123 102 256q68 118 151 205q13 13 24 13q10 0 19 -8q29 -26 29 -68q0 -19 -6 -42q-22 -86 -94 -175
q-64 -78 -138 -126zM116 243q82 66 137 162q45 77 45 111q0 5 -2 6q-10 6 -56.5 -63.5t-99.5 -167.5q-16 -29 -24 -48z" />
    <glyph glyph-name="m" unicode="m" horiz-adv-x="565" 
d="M158 284q35 41 82 75.5t73 33.5q19 -1 31 -21t12 -47q0 -16 -4 -30q39 38 80 64q44 30 68 29q35 -1 35 -56q0 -27 -10.5 -53t-43.5 -80q-38 -61 -49 -82q-15 -30 -15 -56q0 -47 37 -46q49 1 125 137q9 15 18 2q4 -6 2 -26q-3 -21 -11 -37q-21 -44 -64 -75.5t-86 -31.5
q-46 0 -71.5 24t-25.5 63q0 30 15 64q18 40 69 120q44 68 44 77q0 2 -2 3q-25 9 -107 -73q-92 -92 -174 -273q-5 -11 -12 -11q-6 0 -11 6q-19 16 -19 52q0 32 17 74q15 39 73 131q50 80 50 93q0 3 -2 4q-11 4 -43 -18q-38 -26 -82 -74q-74 -81 -147 -251q-3 -7 -7 -9
q-5 -2 -12 4q-20 18 -20 50q0 23 10 53q16 48 63.5 138.5t93.5 159.5q11 17 21 0q12 -19 12 -46q0 -28 -13 -61z" />
    <glyph glyph-name="n" unicode="n" horiz-adv-x="384" 
d="M160 294q38 41 78 69q45 32 68 29q19 -3 33.5 -22.5t14.5 -45.5q0 -19 -9 -38q-35 -59 -93 -170q-16 -36 -16 -63q0 -42 32 -40q54 3 128 138q8 15 17 1q12 -19 -9 -62.5t-62 -74.5q-44 -33 -86 -33q-89 0 -89 82q0 30 13 67q16 49 64 129q41 69 41 78q0 4 -2 5
q-10 4 -46 -19q-43 -28 -86 -75q-60 -65 -146 -254q-7 -16 -19 -4q-19 19 -19 52q0 22 9 51q15 46 64 136q47 87 96 159q11 16 21 0q11 -19 11 -45q0 -23 -8 -50z" />
    <glyph glyph-name="o" unicode="o" horiz-adv-x="332" 
d="M342 215q-10 -11 -27 -13q-17 -68 -59 -128q-46 -65 -99 -83q-17 -6 -34 -6q-54 0 -92 50q-26 35 -26 84q0 65 42 141q30 54 71 89q45 38 88 41q41 3 68 -34l34 -40q17 -25 13 -70q0 -7 -2 -23q3 0 9.5 1t10.5 1q11 0 3 -10zM256 242q12 47 8 74q-3 21 -14 21
q-17 0 -17 -37q0 -36 23 -58zM249 215q-8 3 -19 12q-45 35 -46 88q-47 -40 -77 -94q-44 -79 -44 -147q0 -50 33 -50q59 0 118 111q22 42 35 80z" />
    <glyph glyph-name="p" unicode="p" horiz-adv-x="389" 
d="M209 4q126 8 190 146q4 9 10 9q7 0 9 -9q6 -31 -13 -66q-54 -99 -178 -107q-94 -6 -141 37q-29 27 -34 67q-79 -145 -146 -299q-7 -16 -17 -2q-13 19 -13 45t12 65q22 72 117.5 253t143.5 245q7 9 13 9q7 0 11 -10q8 -19 6 -45q51 44 94 44q30 0 52 -23q28 -29 28 -78
q0 -59 -39 -144q-46 -101 -105 -137zM108 181q-21 -53 -21 -93q0 -58 34 -58q25 0 61.5 42t67.5 106q38 78 38 137q0 40 -21 40q-22 0 -58 -33t-67 -84q-11 -18 -34 -57z" />
    <glyph glyph-name="q" unicode="q" horiz-adv-x="373" 
d="M154 10q-37 -25 -72 -25q-39 0 -60.5 27t-21.5 71q0 73 53 150q55 81 116 124q52 37 94 37q31 0 47 -21t14 -51q27 48 43 64q7 7 12 7q6 0 13 -10q7 -15 7 -35q0 -41 -29 -93q-92 -164 -123 -222q-85 -161 -136 -282q-7 -17 -18 -4q-17 20 -17 45q0 19 8 47q21 71 70 171
zM237 168q59 103 59 150q0 24 -16 25q-25 2 -71 -41q-49 -45 -89 -109q-50 -80 -50 -140q0 -37 23 -37q57 0 144 152z" />
    <glyph glyph-name="r" unicode="r" horiz-adv-x="330" 
d="M165 316q45 6 103 46q18 12 27 2q27 -31 27 -63q0 -20 -13 -35q-91 -103 -110 -166q-7 -23 -7 -43q0 -48 32 -49q28 -1 62 38q31 37 57 94q7 16 14 1q11 -23 -5 -62q-17 -43 -55.5 -71.5t-78.5 -26.5t-62.5 27.5t-22.5 65.5q0 86 129 234q-58 -38 -117 -38l-84 -144
q-57 -103 -69 -159q-4 -18 -17 -5q-22 23 -22 57q0 32 19.5 69.5t127.5 191.5q-19 12 -19 37q0 35 32 78q32 40 54 41q20 1 20 -30q0 -34 -22 -90z" />
    <glyph glyph-name="s" unicode="s" horiz-adv-x="302" 
d="M39 164q77 105 115 172q6 50 36 77q22 20 41 20q18 0 18 -17q0 -8 -24 -51q-2 -20 -2 -42q0 -35 7 -104q5 -63 4 -93q-4 -77 -45 -105q84 31 134 139q4 8 10 7q6 0 9 -7q10 -22 -14 -66q-58 -105 -177 -110q-105 -4 -148 75q-16 29 -16 65q0 50 29 74q7 5 11 5
q8 0 10 -16q1 -12 2 -23zM152 272q-35 -64 -104 -162q23 -91 67 -91q43 0 43 123q0 19 -6 130z" />
    <glyph glyph-name="t" unicode="t" horiz-adv-x="214" 
d="M125 389q-46 0 -65 26q-5 7 -5 12q0 9 16 8q33 -2 83 4q51 90 76 124q7 9 14 9q6 0 10 -9q7 -18 7 -37q0 -32 -20 -76q20 1 42.5 -10.5t22.5 -29.5q0 -9 -15 -9q-29 4 -78 -4q-46 -79 -67 -118q-42 -75 -67 -130q-19 -43 -19 -79q0 -56 39 -58q32 -1 72 43q37 40 67 101
q5 10 12 10q6 0 9 -10q6 -20 -9.5 -55.5t-54.5 -70.5q-53 -47 -105 -45q-38 1 -64 30.5t-26 77.5q0 39 19 83q33 79 106 213z" />
    <glyph glyph-name="u" unicode="u" horiz-adv-x="404" 
d="M196 81q-74 -99 -144 -94q-63 4 -63 77q0 31 12 68q39 116 138 255q12 17 26 1q13 -20 13 -45q0 -39 -32 -90q-46 -73 -78 -147q-14 -33 -14 -57q0 -28 19 -30q50 -4 148 154q31 50 74 129q34 63 50 85q9 12 15 12q12 0 19 -23q5 -18 5 -32q0 -31 -15 -63
q-36 -60 -95 -171q-17 -37 -17 -63q0 -36 31 -34q57 3 132 138q4 7 9 7q6 1 9 -6q11 -24 -9 -63q-22 -44 -64.5 -75.5t-85.5 -31.5q-84 0 -84 79q0 10 1 20z" />
    <glyph glyph-name="v" unicode="v" horiz-adv-x="300" 
d="M68 29q53 87 136.5 198.5t135.5 164.5q7 7 12 7t7 -11q4 -30 -41 -87q-51 -61 -101 -122q-76 -94 -136 -189q-10 -15 -20 -10q-30 15 -41 34t-9 58q8 145 65 317q6 20 20 8q31 -27 31 -72q0 -22 -7 -54q-14 -55 -27 -109q-16 -66 -25 -133z" />
    <glyph glyph-name="w" unicode="w" horiz-adv-x="490" 
d="M403 174q11 100 52 167q31 52 55 56q10 2 14 -8t1 -26q-13 -65 -87 -190q-114 -192 -206 -189q-31 1 -48.5 25t-15.5 58q-64 -82 -122 -78q-60 4 -60 74q0 32 13 69q44 126 139 255q13 17 24 1q15 -20 15 -46q0 -37 -33 -89q-56 -89 -82 -152q-14 -35 -14 -57
q0 -27 18 -26q26 1 60 45q14 19 71 110q46 86 126 214q9 12 15 12q4 0 10 -6q13 -17 13 -49q0 -31 -15 -63q-36 -61 -97 -174q-19 -39 -19 -64q0 -27 24 -28q26 -1 67 43.5t82 115.5z" />
    <glyph glyph-name="x" unicode="x" horiz-adv-x="391" 
d="M174 180q-25 169 -37 170q-11 1 -34 -26q-28 -31 -48 -77q-3 -7 -8 -7q-6 -1 -8 5q-7 20 6.5 54.5t47 62.5t67.5 28q50 0 65 -71q8 -40 14 -86q98 80 150 147q8 10 14 10t6 -12q0 -39 -54 -101q-21 -23 -109 -95q6 -42 17 -109q11 -54 32 -55q45 -3 109 132q3 7 8 7
q5 1 7 -5q10 -25 -9 -63q-23 -46 -59.5 -75.5t-72.5 -29.5q-76 0 -93 114q-1 9 -4 29q-83 -70 -138 -137q-7 -8 -15 -8q-9 0 -8 11q4 44 60 104q25 27 94 83z" />
    <glyph glyph-name="y" unicode="y" horiz-adv-x="375" 
d="M386 97q-48 -75 -192 -134q-57 -135 -95 -202q-60 -104 -115 -125q-10 -4 -19 -4q-21 0 -38 25q-28 42 -28 78q0 21 8 46q40 121 214 189q10 24 31 72q-57 -59 -109 -55q-64 5 -64 76q0 32 13 69q43 124 136 253q12 17 25 0q14 -19 14 -43q0 -37 -33 -90
q-51 -81 -77 -146q-14 -34 -14 -57q0 -27 19 -29q51 -4 140 148q43 82 121 215q12 18 25 7q13 -17 13 -47q0 -32 -17 -65q-89 -172 -133 -275q107 58 177 154q4 6 9 5q5 0 7 -7q5 -22 -18 -58zM104 -72q-76 -44 -122 -117q-39 -61 -39 -104q0 -18 8 -18q18 0 63 68
q50 75 90 171z" />
    <glyph glyph-name="z" unicode="z" horiz-adv-x="353" 
d="M205 3q12 61 -37 61q-47 0 -94 -33q-13 -9 -17.5 2.5t-4.5 24.5q0 41 48 68q90 52 144 110q49 53 49 89q0 28 -29 28q-39 0 -103 -41q-68 -43 -114 -101q-9 -11 -14 1q-3 8 -3 19q0 49 43 91q77 75 172 75q45 0 72 -38q19 -27 19 -59q0 -36 -23 -74q-38 -65 -148 -134
q40 2 63 -20q20 -18 26 -49q72 38 120 129q3 6 9 6q6 1 9 -6q9 -19 -14 -62q-30 -55 -122 -95q0 -75 -60 -174q-55 -90 -107 -119q-16 -9 -28 -9q-20 0 -38 23q-33 40 -33 74q0 21 10 43q45 104 205 170zM196 -30q-77 -43 -123 -110q-37 -55 -37 -93q0 -19 9 -19
q21 0 74.5 77t76.5 145z" />
    <glyph glyph-name="braceleft" unicode="{" horiz-adv-x="193" 
d="M139 310q19 -21 19 -47q0 -27 -19 -65l-58 -98q-36 -66 -30 -95q3 -15 -6 -15q-4 0 -9 3q-35 22 -35 68q0 20 8 41q14 34 47 85.5t39.5 68t6.5 28.5q0 13 -10 23q-6 8 -4 15q1 8 11 9q31 2 52 32q13 19 50 100t56 109q31 46 87 46q30 0 30 -9q0 -6 -8 -11
q-32 -22 -75 -102q-28 -57 -57 -114q-38 -69 -95 -72z" />
    <glyph glyph-name="bar" unicode="|" horiz-adv-x="224" 
d="M309 644q6 9 13 9q18 0 18 -44q0 -46 -40 -116q-208 -369 -270 -523q-6 -15 -17 -2q-14 15 -14 46q0 27 12 61q26 75 129 272.5t169 296.5z" />
    <glyph glyph-name="braceright" unicode="}" horiz-adv-x="306" 
d="M224 295q-17 18 -17 45q0 28 17 61q28 48 56 95q37 66 37 96q0 6 -1 11q-3 10 1 13t14 -1q41 -16 41 -60q0 -14 -5 -30q-14 -41 -54 -103t-45 -76t-5 -26q0 -13 7 -23t7 -12q0 -10 -18 -14q-24 -6 -46 -34q-14 -19 -48 -94q-36 -79 -54 -106q-31 -47 -85 -47q-33 0 -33 9
q0 5 9 11q29 18 71 97q29 58 58 115q37 67 93 73z" />
    <glyph glyph-name="asciitilde" unicode="~" horiz-adv-x="1051" 
d="M595 108q-9 -27 -9 -49q0 -44 33 -46q42 -3 101 85q55 81 97 196q-30 11 -30 44q0 36 31 78.5t54 43.5q21 1 21 -33t-19 -92q48 5 110 48q20 14 30 2q27 -33 27 -65q0 -21 -14 -37q-88 -102 -113 -174q-9 -26 -9 -48q0 -46 34 -48q29 -2 63.5 38t59.5 99q3 7 8 7t7 -6
q12 -31 -3 -65q-20 -45 -60 -74t-80 -28q-43 1 -67 28.5t-24 70.5q0 25 8 52q23 74 125 191q-60 -38 -120 -38q-118 -302 -244 -305q-42 -1 -65.5 26t-23.5 71q0 26 9 54q22 71 125 191q-58 -39 -120 -39q-115 -289 -245 -301q-41 -4 -63 19.5t-20 63.5q-65 -79 -127 -79
q-38 0 -59.5 27t-21.5 70q0 72 52 149q55 81 115 124q52 36 94 36q29 0 44.5 -18.5t15.5 -45.5q20 33 35 53q8 11 15 11q11 0 18 -23q6 -17 6 -31q0 -30 -15 -61q-35 -60 -94 -174q-16 -35 -16 -60q0 -33 28 -30q46 5 103 88q55 77 97 189q-31 11 -31 44q0 36 31 78t55 44
q20 1 20 -33t-19 -92q48 5 110 47q21 14 30 3q28 -34 28 -67q0 -21 -14 -36q-88 -97 -114 -173zM236 170q58 102 58 150q0 23 -15 24q-25 2 -72 -41.5t-87 -107.5q-49 -79 -49 -138q0 -37 23 -37q56 0 142 150z" />
    <glyph glyph-name="nonbreakingspace" unicode="&#xa0;" horiz-adv-x="220" 
 />
    <glyph glyph-name="exclamdown" unicode="&#xa1;" horiz-adv-x="317" 
d="M306 555q0 47 31 47q22 0 36 -22q10 -16 10 -34q0 -16 -8.5 -31t-23.5 -15q-19 0 -32 18t-13 37zM86 -33q-6 -9 -13 -9q-19 0 -19 47q0 48 37 115q121 219 190 367q7 15 17 4q16 -17 16 -47q0 -27 -13 -62q-31 -83 -94 -206q-66 -129 -121 -209z" />
    <glyph glyph-name="cent" unicode="&#xa2;" horiz-adv-x="353" 
d="M307 482q19 36 60 103q6 9 10 9q14 0 14 -29q0 -28 -41 -109q36 -31 36 -63q0 -22 -18 -58q-15 -31 -31 -62q-5 -13 -11 -13q-5 0 -12 5q-24 16 -24 45q0 17 8.5 37.5t18.5 41.5q12 25 12 36q0 14 -16 14q-31 0 -82 -46q-55 -50 -83 -112q-22 -49 -22 -88q0 -70 56 -70
q28 0 59 21.5t52 55.5q9 14 16 2q5 -8 5 -19q0 -24 -19 -48q-38 -48 -101 -48q-19 0 -38 5q-33 -62 -46 -92q-7 -15 -14 -3q-7 11 -7 27q0 20 11 47q1 5 15 39q-55 38 -55 111q0 55 34 114q40 69 97 111q53 38 98 38q10 0 18 -2z" />
    <glyph glyph-name="sterling" unicode="&#xa3;" horiz-adv-x="355" 
d="M318 331q-36 0 -20 17q26 27 44.5 61t18.5 53q0 14 -14 14q-33 0 -94 -54t-54 -107q13 4 31 4q48 1 61 -39q3 -10 -6 -10q-26 0 -75 -7q1 -8 1 -16q0 -36 -25 -63q16 2 44 5q57 5 76 -39q5 -12 -8 -12q-75 -3 -174 -35q-18 -6 -28 6q-18 22 -25 31q-12 15 5 24
q80 43 98 90q-24 -7 -38 -8q-50 -4 -67 35q-3 6 -1 10q2 3 8 3q28 -1 89 15q-14 44 -14 59q0 52 62 107q51 46 103 46q32 0 59 -20q37 -27 37 -67q0 -41 -31 -72t-63 -31z" />
    <glyph glyph-name="currency" unicode="&#xa4;" 
d="M93 299q-9 -1 -18 -1q-20 0 -45 10q-30 12 -30 29q0 8 17 8q31 -1 101 6q40 67 96 107q52 36 96 36q21 0 36 -9q60 -38 60 -81q0 -22 -18 -58q-30 -59 -31 -61q-5 -13 -11 -13q-4 0 -11 4q-25 16 -25 46q0 16 8 37q1 4 19 40q11 24 11 35q0 15 -15 15q-21 0 -56.5 -26
t-66.5 -66q40 -2 58 -28q4 -6 4 -10q0 -9 -16 -8q-29 2 -79 -4q-6 -13 -17 -40q41 2 62 -28q4 -6 4 -10q0 -10 -14 -9q-24 1 -64 -4q-8 -80 55 -80q28 0 59 21t51 55q7 13 15 2q6 -8 6 -20q0 -23 -19 -47q-37 -47 -101 -47q-25 0 -49 9q-69 25 -82 97q-21 -2 -49 7
q-34 11 -34 30q0 8 15 8q20 -1 67 4q3 19 11 44z" />
    <glyph glyph-name="yen" unicode="&#xa5;" horiz-adv-x="557" 
d="M579 85q-19 -45 -59 -74.5t-81 -27.5q-43 2 -66.5 29t-23.5 70q0 25 9 53q24 78 125 190q-61 -38 -122 -38q-56 -127 -123 -208q-79 -94 -152 -94q-38 0 -64.5 29.5t-26.5 78.5q0 39 18 83q34 82 106 211q-19 1 -41 10q-27 12 -27 29q0 10 15 9q26 -2 82 3q56 100 76 124
q6 10 13 10q18 0 18 -46q0 -33 -21 -79q18 -1 38 -13q25 -13 25 -30q0 -8 -17 -7q-33 2 -72 -1l-68 -118q-43 -77 -67 -130q-19 -42 -19 -78q0 -58 40 -57q46 1 113.5 83.5t113.5 196.5q-27 11 -27 41q0 36 33.5 80.5t57.5 45.5q21 1 21 -30q0 -35 -25 -95q49 4 109 46
q19 13 29 2q29 -32 29 -65q0 -20 -14 -36q-92 -104 -115 -174q-8 -25 -8 -46q0 -49 33 -50q29 -1 64 39t61 99q8 18 15 0q11 -27 -5 -65z" />
    <glyph glyph-name="brokenbar" unicode="&#xa6;" horiz-adv-x="716" 
d="M738 86q-18 -45 -58 -73.5t-80 -27.5q-44 1 -68 28t-24 70q0 25 9 53q23 73 125 190q-60 -38 -120 -38q-114 -290 -245 -301q-44 -4 -66 22.5t-18 70.5q-72 -97 -140 -92q-64 5 -64 76q0 31 13 68q42 125 138 253q12 16 23 1q15 -20 15 -45q0 -36 -32 -89
q-36 -60 -46 -77q-20 -38 -33 -70t-13 -55q0 -28 18 -30q52 -4 148 152q45 85 123 213q13 17 24 6q14 -15 14 -47q0 -31 -15 -63q-36 -60 -94 -171q-16 -36 -16 -62q0 -34 27 -31q46 4 104 87q54 77 96 189q-31 12 -31 45q0 36 32 80q31 41 54 43q21 1 21 -34q0 -34 -19 -92
q50 7 110 47q19 16 30 3q27 -33 27 -65q0 -21 -14 -37q-87 -98 -113 -173q-9 -26 -9 -48q0 -47 34 -49q29 -2 64 40q34 39 59 98q7 17 15 0q11 -25 -5 -65z" />
    <glyph glyph-name="section" unicode="&#xa7;" horiz-adv-x="692" 
d="M214 7q163 86 241 287q-26 11 -26 41q0 36 33.5 80t56.5 45q20 1 20 -31q0 -34 -22 -95q50 9 107 47q20 14 30 3q28 -31 28 -66q0 -21 -13 -36q-91 -101 -115 -173q-8 -25 -8 -47q0 -49 33 -50q29 -1 65 40q32 38 59 98q3 6 8 7q5 0 8 -7q11 -28 -5 -65
q-19 -45 -58.5 -73.5t-81.5 -27.5q-43 1 -67 28.5t-24 71.5q0 25 8 51q20 71 122 187q-53 -33 -115 -35q-53 -119 -112 -188q-75 -86 -191 -135q-121 -291 -210 -328q-11 -4 -20 -4q-22 0 -38 24q-28 44 -28 78q0 22 8 46q40 120 215 189q10 24 31 73q-57 -59 -109 -55
q-64 5 -64 75q0 31 13 69q45 127 136 253q13 18 25 1q14 -19 14 -43q0 -35 -33 -91q-55 -93 -77 -146q-14 -34 -14 -57q0 -27 19 -29q49 -4 140 148q43 82 121 215q9 13 16 13q10 0 17 -22q5 -15 5 -29q0 -32 -17 -65q-45 -88 -131 -272zM105 -72q-76 -44 -123 -118
q-38 -62 -38 -104q0 -17 7 -17q17 0 63 68q50 75 91 171z" />
    <glyph glyph-name="dieresis" unicode="&#xa8;" horiz-adv-x="566" 
d="M105 184q71 -19 65 -124q0 -9 -2 -28q94 59 165 261q-31 11 -31 45q0 36 31 78t55 44q20 1 20 -33q0 -35 -19 -93q50 6 110 47q20 14 30 3q28 -32 28 -65q0 -22 -14 -37q-87 -96 -114 -173q-9 -26 -9 -47q0 -48 34 -50q29 -2 65 40q33 39 59 98q7 16 15 0q12 -25 -5 -65
q-19 -45 -58.5 -73.5t-81.5 -27.5q-43 1 -66.5 28t-23.5 70q0 25 9 53q24 78 124 189q-60 -37 -119 -37q-35 -100 -87 -175q-58 -85 -122 -111q-13 -78 -45.5 -156.5t-69.5 -124.5q-27 -34 -53 -34q-21 0 -44 21q-44 39 -44 106q0 17 3 37q19 147 153 407q100 192 216 364
q6 9 13 9t11 -10q7 -17 7 -36q0 -44 -41 -114q-55 -90 -164 -286zM101 17q7 36 9 73q1 27 -4.5 47t-11.5 18q-8 -3 -14.5 -31.5t-6.5 -48.5q0 -55 28 -58zM95 -10q-45 5 -61 39q-76 -181 -76 -256q0 -34 14 -34q22 0 61.5 79.5t61.5 171.5z" />
    <glyph glyph-name="copyright" unicode="&#xa9;" horiz-adv-x="550" 
d="M495 612q89 -38 89 -149q0 -68 -34 -137q-37 -75 -100 -117.5t-132 -39.5q-57 2 -90 35q-31 30 -31 80q0 52 34 108q38 63 85 101q45 35 81 35q16 0 27 -7q49 -30 49 -70q0 -20 -15 -54q-14 -28 -28 -57q-6 -14 -19 -8q-23 11 -23 42q0 16 7 33q3 7 17 38q10 21 10 29
q0 9 -9 9q-18 0 -50 -31q-36 -34 -65 -83q-34 -58 -34 -105q0 -61 50 -64q49 -3 99 38q45 38 78 101q39 75 39 149q0 71 -46 97q-23 13 -54 13q-56 0 -116 -38q-67 -42 -114 -114q-60 -92 -60 -187q0 -97 59 -132q31 -18 71 -18q57 0 108 33q7 5 10 4q4 -1 3 -10
q-2 -33 -46 -51q-31 -13 -65 -13q-51 0 -97 28q-92 55 -97 171q-5 130 94 247q88 102 183 123q23 5 43 5q56 0 89 -34z" />
    <glyph glyph-name="ordfeminine" unicode="&#xaa;" horiz-adv-x="428" 
d="M455 387q-21 0 -36 23q-11 17 -11 36q0 16 9.5 30.5t24.5 14.5q26 0 38 -29q7 -16 7 -32q0 -43 -32 -43zM465 152q7 -21 -15 -59q-50 -87 -209 -154q-122 -292 -209 -325q-12 -4 -21 -4q-20 0 -36 23q-30 44 -30 80q0 21 7 43q41 131 218 191q33 81 67 157
q-36 -23 -81 -21q-50 2 -77 47q-76 -156 -135 -311q-7 -18 -17 -4q-17 22 -17 52q0 25 11 58q51 155 150 352q121 240 214 322q14 13 25 13q9 0 17 -8q28 -27 28 -67q0 -19 -6 -42q-24 -89 -102 -192q-75 -97 -151 -148q18 -40 61 -41q39 0 78.5 33t63.5 85q42 89 81 145
q8 12 15 12q10 0 17 -21q5 -16 5 -29q0 -32 -16 -66q-49 -97 -142 -293q111 59 190 173q11 16 16 -1zM160 287q-15 -26 -45 -84q87 70 150 181q52 91 52 127q0 5 -2 6q-9 5 -57 -65q-50 -73 -98 -165zM152 -95q-75 -44 -122 -118q-39 -61 -39 -103q0 -18 8 -18q18 0 63 68
q49 75 90 171z" />
    <glyph glyph-name="guillemotleft" unicode="&#xab;" horiz-adv-x="652" 
d="M210 21q-31 -19 -60 -26q-12 -76 -42 -150.5t-66 -119.5q-30 -36 -53 -36q-16 0 -36 16q-45 37 -45 110q0 135 141 414q104 205 230 391q7 10 13 10q18 0 18 -46q0 -43 -39 -115q-56 -89 -166 -284q53 -17 52 -116q0 -23 -3 -42q76 37 128 135q78 148 131 225q6 9 13 9
q11 0 16 -23q4 -17 3 -31q50 43 92 43q30 0 52 -23q28 -29 28 -78q0 -59 -39 -142q-47 -100 -105 -137q121 6 189 145q4 8 11 8t9 -8q7 -25 -15 -65q-53 -99 -176 -106q-94 -6 -139 36q-28 25 -34 66q-85 -156 -155 -318q-7 -17 -17 -4q-14 19 -14 46q0 26 11.5 64t66.5 152
zM373 178q-20 -53 -20 -90q0 -56 34 -56q26 0 61 41.5t66 104.5q38 78 38 136q0 40 -21 40t-56.5 -33t-66.5 -84q-11 -18 -35 -59zM102 17q4 25 9 72q1 28 -5 48.5t-12 17.5q-7 -4 -14 -32.5t-7 -47.5q0 -51 29 -58zM96 -10q-44 5 -62 40q-76 -180 -76 -255q0 -34 15 -34
q22 0 61.5 79t61.5 170z" />
    <glyph glyph-name="logicalnot" unicode="&#xac;" horiz-adv-x="541" 
d="M594 460q6 -14 6 -28q0 -22 -12 -38q-8 -8 -20 -8q-21 0 -36 23q-10 16 -10 35q0 17 9 31.5t24 14.5q26 0 39 -30zM578 150q6 -21 -15 -58q-53 -91 -209 -153q-123 -293 -209 -326q-12 -5 -21 -5q-21 0 -36 23q-30 46 -30 82q0 20 7 43q41 130 218 191q68 165 131 288
q-45 -33 -100 -30q-18 -78 -67 -141q-59 -77 -128 -77q-54 0 -89 48q-26 35 -26 85q0 67 43 140q73 125 158 130q43 2 69 -33l34 -40q17 -24 14 -70q0 -3 -3 -17q75 0 173 144q9 13 16 13q11 0 17 -21q5 -15 5 -29q0 -31 -16 -65q-49 -96 -142 -293q113 60 190 173q4 6 9 5
q5 0 7 -7zM257 247q10 39 6 70q-3 22 -13 22q-13 0 -17 -25q-7 -39 24 -67zM250 222q-64 32 -66 95q-44 -37 -77 -95q-44 -77 -44 -147q0 -49 33 -49q58 0 117 109q25 46 37 87zM265 -96q-75 -43 -122 -117q-39 -61 -39 -103q0 -18 9 -18q18 0 63 68q48 73 89 170z" />
    <glyph glyph-name="minus" unicode="&#xad;" horiz-adv-x="923" 
d="M954 151q4 -6 3 -25q-2 -21 -10 -38q-22 -43 -65 -75t-84 -31q-46 1 -70.5 24.5t-24.5 62.5q0 30 14 63q18 41 68 120q44 68 44 77q0 2 -2 3q-24 9 -107 -74q-94 -94 -173 -270q-5 -11 -13 -11q-13 0 -21 23q-6 18 -6 33q0 32 15.5 73t72.5 132q50 81 50 93q0 3 -2 4
q-9 4 -42 -19q-38 -27 -82 -74q-73 -79 -146 -249q-6 -14 -19 -3q-19 16 -19 49q0 22 9 52q13 42 64 140q-43 -29 -93 -25q-16 -69 -58 -130q-46 -67 -99 -84q-19 -6 -37 -6q-54 0 -90 49q-26 34 -26 84q0 66 43 141q30 53 71 89q45 38 88 41q39 3 67 -34q18 -19 35 -39
q17 -24 13 -71q0 -5 -2 -16q83 1 180 156q11 18 22 0q11 -17 11 -43q0 -28 -13 -61q37 41 80 73q49 36 74 35q19 -1 31 -21t12 -48q0 -15 -4 -29q97 92 146 91q35 -1 35 -56q0 -26 -10.5 -51t-44.5 -80q-36 -59 -47 -81q-15 -31 -15 -57q0 -47 37 -45q50 3 123 138
q7 14 17 0zM258 246q10 47 6 70q-3 22 -14 22q-13 0 -16 -25q-6 -42 24 -67zM250 221q-62 34 -65 95q-43 -36 -77 -95q-44 -76 -44 -144q0 -52 33 -52q57 0 117 110q25 47 36 86z" />
    <glyph glyph-name="minus" unicode="&#x2212;" horiz-adv-x="923" 
d="M954 151q4 -6 3 -25q-2 -21 -10 -38q-22 -43 -65 -75t-84 -31q-46 1 -70.5 24.5t-24.5 62.5q0 30 14 63q18 41 68 120q44 68 44 77q0 2 -2 3q-24 9 -107 -74q-94 -94 -173 -270q-5 -11 -13 -11q-13 0 -21 23q-6 18 -6 33q0 32 15.5 73t72.5 132q50 81 50 93q0 3 -2 4
q-9 4 -42 -19q-38 -27 -82 -74q-73 -79 -146 -249q-6 -14 -19 -3q-19 16 -19 49q0 22 9 52q13 42 64 140q-43 -29 -93 -25q-16 -69 -58 -130q-46 -67 -99 -84q-19 -6 -37 -6q-54 0 -90 49q-26 34 -26 84q0 66 43 141q30 53 71 89q45 38 88 41q39 3 67 -34q18 -19 35 -39
q17 -24 13 -71q0 -5 -2 -16q83 1 180 156q11 18 22 0q11 -17 11 -43q0 -28 -13 -61q37 41 80 73q49 36 74 35q19 -1 31 -21t12 -48q0 -15 -4 -29q97 92 146 91q35 -1 35 -56q0 -26 -10.5 -51t-44.5 -80q-36 -59 -47 -81q-15 -31 -15 -57q0 -47 37 -45q50 3 123 138
q7 14 17 0zM258 246q10 47 6 70q-3 22 -14 22q-13 0 -16 -25q-6 -42 24 -67zM250 221q-62 34 -65 95q-43 -36 -77 -95q-44 -76 -44 -144q0 -52 33 -52q57 0 117 110q25 47 36 86z" />
    <glyph glyph-name="registered" unicode="&#xae;" horiz-adv-x="567" 
d="M563 324q-27 -66 -72.5 -101t-93.5 -35q-99 0 -129 117q-28 -50 -55 -107q-7 -15 -16 -3q-13 17 -13 39q0 21 11 49q25 66 98 186q-14 10 -21 24q-6 12 8 15q20 4 68 22q42 15 64 16q57 2 76 -53q6 -17 6 -34q0 -36 -26 -70q-45 -58 -137 -83q10 -40 29.5 -63t39.5 -24
q55 -2 108 114q28 62 28 122q0 102 -65 130q-20 8 -45 8q-54 0 -115 -37q-67 -40 -118 -112q-67 -93 -67 -192q0 -92 57 -122q25 -13 57 -13q68 0 118 44q15 13 15 -3q0 -36 -40 -59q-32 -19 -74 -19t-78 16q-108 47 -108 177t101 243q90 100 184 120q24 5 45 5q54 0 88 -33
q96 -43 96 -165q0 -61 -24 -119zM439 489q-11 0 -72 -20q-22 -35 -69 -111q66 18 114 55q44 35 44 61q0 15 -17 15z" />
    <glyph glyph-name="macron" unicode="&#xaf;" horiz-adv-x="749" 
d="M769 89q-21 -44 -62.5 -75t-84.5 -31q-87 0 -87 82q0 29 12 65q17 50 65 129q41 69 41 77q0 3 -2 4q-11 4 -46 -18q-43 -27 -86 -74q-68 -74 -146 -253q-7 -16 -19 -3q-18 20 -18 51q0 23 10 51q22 63 63 136q-42 -28 -93 -25q-16 -68 -59 -129q-46 -66 -99 -83
q-19 -6 -37 -6q-53 0 -89 48q-26 35 -26 86q0 66 42 139q70 122 159 130q40 4 67 -33q18 -20 35 -40q17 -25 13 -70q0 -6 -1 -18q81 1 182 156q11 17 21 2q12 -19 12 -47q0 -22 -8 -47q98 103 145 97q19 -2 33.5 -22t14.5 -46q0 -19 -9 -38q-35 -58 -93 -169
q-16 -35 -16 -62q0 -40 33 -39q53 1 126 138q3 6 9 6t8 -6q9 -23 -10 -63zM258 247q10 46 6 70q-3 21 -14 21q-13 0 -16 -24q-6 -43 24 -67zM251 220q-63 34 -65 97q-43 -35 -78 -95q-45 -76 -45 -145q0 -51 33 -51q25 0 57.5 28.5t60.5 80.5q25 46 37 85z" />
    <glyph glyph-name="macron" unicode="&#x2c9;" horiz-adv-x="749" 
d="M769 89q-21 -44 -62.5 -75t-84.5 -31q-87 0 -87 82q0 29 12 65q17 50 65 129q41 69 41 77q0 3 -2 4q-11 4 -46 -18q-43 -27 -86 -74q-68 -74 -146 -253q-7 -16 -19 -3q-18 20 -18 51q0 23 10 51q22 63 63 136q-42 -28 -93 -25q-16 -68 -59 -129q-46 -66 -99 -83
q-19 -6 -37 -6q-53 0 -89 48q-26 35 -26 86q0 66 42 139q70 122 159 130q40 4 67 -33q18 -20 35 -40q17 -25 13 -70q0 -6 -1 -18q81 1 182 156q11 17 21 2q12 -19 12 -47q0 -22 -8 -47q98 103 145 97q19 -2 33.5 -22t14.5 -46q0 -19 -9 -38q-35 -58 -93 -169
q-16 -35 -16 -62q0 -40 33 -39q53 1 126 138q3 6 9 6t8 -6q9 -23 -10 -63zM258 247q10 46 6 70q-3 21 -14 21q-13 0 -16 -24q-6 -43 24 -67zM251 220q-63 34 -65 97q-43 -35 -78 -95q-45 -76 -45 -145q0 -51 33 -51q25 0 57.5 28.5t60.5 80.5q25 46 37 85z" />
    <glyph glyph-name="degree" unicode="&#xb0;" horiz-adv-x="302" 
d="M258 613q32 0 54 -30q25 -34 23 -75q-3 -51 -35 -98q-36 -53 -84 -53q-38 0 -64 36q-18 25 -18 61q0 43 23 86q38 73 101 73zM275 569q-34 0 -69 -61q-26 -45 -26 -85q0 -27 17 -27q27 0 61 57q31 52 31 95q0 21 -14 21z" />
    <glyph glyph-name="plusminus" unicode="&#xb1;" horiz-adv-x="574" 
d="M445 205q-36 -89 -36 -142q0 -46 29 -48q34 -2 80 41.5t75 102.5q5 10 12 10q6 0 9 -10q6 -21 -10 -61q-13 -31 -57 -67q-56 -45 -108 -43q-89 4 -89 99q0 42 17 96q-8 -1 -23 -1q-18 0 -35 3q-23 -74 -68 -129q-57 -69 -122 -69q-54 0 -89 48q-25 35 -25 85q0 66 42 140
q70 122 158 130q41 4 68 -33l34 -40q16 -24 13 -70q-2 -22 -5 -38q18 -2 28 -2q21 0 31 1q34 108 102 219q62 100 133 175q13 13 25 13q10 0 18 -8q28 -28 28 -69q0 -45 -35 -114q-29 -56 -65 -101q-71 -89 -135 -118zM463 247q53 36 105 111q29 41 51.5 88t22.5 66
q0 5 -3 7q-8 6 -57 -65t-98 -164q-9 -16 -21 -43zM255 242q12 48 8 75q-3 22 -14 22q-17 0 -17 -38q0 -33 23 -59zM247 212q-64 43 -64 103q-48 -38 -78 -93q-43 -77 -43 -146q0 -51 33 -51q25 0 57.5 29t60.5 81q17 31 34 77z" />
    <glyph glyph-name="twosuperior" unicode="&#xb2;" horiz-adv-x="563" 
d="M533 407q-10 18 -10 36q0 16 8.5 30.5t23.5 14.5q27 0 40 -31q6 -14 6 -28q0 -16 -8.5 -31t-24.5 -15q-22 0 -35 24zM590 150q10 -27 -8 -63q-23 -45 -65.5 -75t-84.5 -29q-79 1 -79 81q0 30 13 66q14 41 42 100q-38 -28 -93 -25q-16 -69 -58 -129q-47 -66 -100 -83
q-19 -6 -37 -6q-53 0 -89 48q-26 36 -26 86q0 66 42 139q71 122 159 130q44 4 69 -33l34 -40q16 -25 13 -70q-1 -10 -2 -17q78 0 173 143q8 12 15 12q12 0 19 -22q5 -16 5 -30q0 -31 -15 -63q-31 -57 -84 -162q-17 -39 -17 -65q0 -32 27 -31q32 2 70 44q37 39 60 94
q7 17 17 0zM257 247q10 34 6 70q-2 21 -13 21q-13 0 -17 -24q-7 -39 24 -67zM251 220q-64 34 -66 97q-48 -41 -78 -95q-44 -79 -44 -147q0 -50 33 -50q24 0 56.5 29t60.5 81q23 43 38 85z" />
    <glyph glyph-name="threesuperior" unicode="&#xb3;" horiz-adv-x="691" 
d="M692 215q-10 -10 -28 -12q-17 -69 -59 -128q-45 -65 -97 -82q-18 -6 -37 -6q-53 0 -89 48q-27 36 -27 86q0 45 21 96q-27 -13 -62 -13q-19 -76 -67 -140q-58 -77 -126 -77q-52 0 -89 48q-27 35 -27 86q0 65 42 139q30 53 73.5 89.5t86.5 40.5q41 4 67 -33l34 -40
q17 -25 14 -70l-1 -15q53 8 108 76q63 78 128 82q40 3 67 -33q17 -20 35 -40q16 -25 13 -70q0 -7 -3 -23q14 0 19 1q6 1 7 -2q1 -4 -3 -8zM263 317q-3 21 -13 21q-13 0 -17 -25q-6 -46 24 -69q10 42 6 73zM607 243q10 43 6 74q-3 21 -13 21q-17 0 -17 -37q0 -35 24 -58z
M599 217q-10 3 -18 11q-47 33 -47 87q-43 -33 -77 -93q-43 -75 -43 -145q0 -52 32 -52q24 0 56.5 29t60.5 81q24 43 36 82zM184 315q-43 -33 -77 -93q-44 -77 -44 -145q0 -51 33 -51q58 0 117 109q26 49 36 83q-26 14 -44 39q-21 28 -21 58z" />
    <glyph glyph-name="acute" unicode="&#xb4;" horiz-adv-x="718" 
d="M178 40q-52 -52 -102 -52q-38 0 -59 27t-21 71q0 73 53 149q56 81 115 124q52 37 93 37q29 0 45 -19t15 -47q12 19 34 55q7 11 15 11q11 0 18 -21q5 -16 5 -30q0 -31 -17 -65q-44 -87 -131 -271q165 85 240 284q-26 12 -26 41q0 37 33 81t57 45q21 1 21 -30
q0 -33 -23 -96q53 9 108 47q19 13 29 2q29 -32 29 -65q0 -20 -14 -36q-92 -104 -115 -174q-8 -25 -8 -46q0 -49 33 -50q29 -1 64 39t61 99q8 18 15 0q11 -27 -5 -65q-19 -45 -59 -74.5t-81 -27.5q-43 2 -66.5 29t-23.5 70q0 25 9 53q23 74 125 190q-61 -39 -121 -39
q-52 -118 -111 -187q-74 -86 -189 -133q-59 -138 -96 -202q-60 -105 -115 -127q-10 -4 -19 -4q-22 0 -38 25q-28 43 -28 78q0 22 8 46q39 119 215 190q14 36 28 68zM230 171q59 101 59 150q0 23 -15 24q-25 2 -72 -42t-87 -108q-49 -79 -49 -137q0 -37 23 -37q53 0 141 150z
M133 -70q-77 -45 -123 -119q-39 -60 -39 -102q0 -19 8 -19q18 0 63 68q49 74 91 172z" />
    <glyph glyph-name="mu" unicode="&#xb5;" horiz-adv-x="765" 
d="M790 90q-23 -45 -63 -75q-43 -32 -86 -32q-83 0 -83 78q0 10 1 20q-76 -100 -143 -94q-63 5 -63 77q0 62 50 154q-48 -22 -90 -18q-21 -75 -67 -136q-58 -77 -123 -77q-55 0 -92 50q-26 35 -26 85q0 65 41 140q30 54 73 90t87 39q39 3 68 -34q17 -19 34 -39
q16 -24 13 -71q-1 -8 -2 -20q83 1 146 103q8 14 38 55q12 16 25 1q13 -20 13 -44q0 -37 -32 -90q-56 -92 -78 -146q-13 -33 -13 -56q0 -28 18 -30q52 -4 148 152q46 85 122 213q8 12 15 12q12 0 19 -23q5 -17 5 -32q0 -30 -15 -62q-35 -59 -94 -170q-17 -37 -17 -63
q0 -36 31 -34q58 3 131 138q9 17 18 1q12 -21 -9 -62zM263 318q-3 21 -14 21q-13 0 -16 -24q-5 -43 23 -68q11 39 7 71zM249 218q-65 36 -65 99q-47 -40 -78 -95q-43 -77 -43 -145q0 -51 32 -51q25 0 57.5 29.5t61.5 81.5q17 31 35 81z" />
    <glyph glyph-name="mu" unicode="&#x3bc;" horiz-adv-x="765" 
d="M790 90q-23 -45 -63 -75q-43 -32 -86 -32q-83 0 -83 78q0 10 1 20q-76 -100 -143 -94q-63 5 -63 77q0 62 50 154q-48 -22 -90 -18q-21 -75 -67 -136q-58 -77 -123 -77q-55 0 -92 50q-26 35 -26 85q0 65 41 140q30 54 73 90t87 39q39 3 68 -34q17 -19 34 -39
q16 -24 13 -71q-1 -8 -2 -20q83 1 146 103q8 14 38 55q12 16 25 1q13 -20 13 -44q0 -37 -32 -90q-56 -92 -78 -146q-13 -33 -13 -56q0 -28 18 -30q52 -4 148 152q46 85 122 213q8 12 15 12q12 0 19 -23q5 -17 5 -32q0 -30 -15 -62q-35 -59 -94 -170q-17 -37 -17 -63
q0 -36 31 -34q58 3 131 138q9 17 18 1q12 -21 -9 -62zM263 318q-3 21 -14 21q-13 0 -16 -24q-5 -43 23 -68q11 39 7 71zM249 218q-65 36 -65 99q-47 -40 -78 -95q-43 -77 -43 -145q0 -51 32 -51q25 0 57.5 29.5t61.5 81.5q17 31 35 81z" />
    <glyph glyph-name="paragraph" unicode="&#xb6;" horiz-adv-x="471" 
d="M621 551h-55q-4 -31 -35 -83q-167 -279 -241 -465q-6 -15 -17 -2q-14 16 -14 45q0 23 9 54q21 71 90.5 207.5t139.5 239.5q-15 -1 -50 -7q-201 -334 -284 -543q-7 -18 -18 -4q-14 18 -14 48q0 23 8 51q16 55 59 144q-85 16 -96 100q-1 10 -1 20q0 75 68 142
q60 59 161.5 91.5t214.5 30.5q68 -1 87 -54q5 -15 -12 -15z" />
    <glyph glyph-name="periodcentered" unicode="&#xb7;" horiz-adv-x="539" 
d="M232 459q6 -12 6 -27q0 -48 -33 -48q-23 0 -36 24q-9 17 -9 35q0 16 8.5 31t23.5 15q26 0 40 -30zM362 334q51 6 110 47q20 14 30 3q26 -32 26 -65q0 -21 -13 -36q-89 -102 -113 -175q-9 -26 -9 -48q0 -48 34 -49q29 -1 64 41q34 39 59 98q7 17 15 0q11 -25 -5 -65
q-19 -45 -58.5 -73.5t-81.5 -27.5q-43 1 -66.5 28t-23.5 69q0 26 9 54q24 78 127 192q-60 -40 -123 -40q-53 -121 -118 -199q-77 -94 -153 -102q-82 -9 -82 81q0 30 11 64q19 61 68 146q35 61 61 97q8 11 15 11q11 0 18 -21q4 -16 4 -30q0 -31 -14 -64q-30 -51 -86 -164
q-16 -38 -16 -62q0 -32 27 -29q51 6 116 84q70 82 110 194q-29 11 -29 42q0 36 34 79.5t58 44.5q19 1 19 -28q0 -34 -24 -97z" />
    <glyph glyph-name="periodcentered" unicode="&#x2219;" horiz-adv-x="539" 
d="M232 459q6 -12 6 -27q0 -48 -33 -48q-23 0 -36 24q-9 17 -9 35q0 16 8.5 31t23.5 15q26 0 40 -30zM362 334q51 6 110 47q20 14 30 3q26 -32 26 -65q0 -21 -13 -36q-89 -102 -113 -175q-9 -26 -9 -48q0 -48 34 -49q29 -1 64 41q34 39 59 98q7 17 15 0q11 -25 -5 -65
q-19 -45 -58.5 -73.5t-81.5 -27.5q-43 1 -66.5 28t-23.5 69q0 26 9 54q24 78 127 192q-60 -40 -123 -40q-53 -121 -118 -199q-77 -94 -153 -102q-82 -9 -82 81q0 30 11 64q19 61 68 146q35 61 61 97q8 11 15 11q11 0 18 -21q4 -16 4 -30q0 -31 -14 -64q-30 -51 -86 -164
q-16 -38 -16 -62q0 -32 27 -29q51 6 116 84q70 82 110 194q-29 11 -29 42q0 36 34 79.5t58 44.5q19 1 19 -28q0 -34 -24 -97z" />
    <glyph glyph-name="cedilla" unicode="&#xb8;" horiz-adv-x="649" 
d="M667 300q-50 -61 -100 -121q-76 -95 -135 -188q-10 -16 -21 -10q-29 14 -40 33.5t-9 57.5q2 49 26 168q-26 -29 -75 -34q-18 -77 -66 -141q-59 -77 -128 -77q-51 0 -88 49q-27 35 -27 85q0 64 42 140q30 54 73 90t87 39q39 3 67 -34q17 -19 34 -39q17 -24 14 -71
q-1 -15 -1 -12q71 18 106 151q6 21 21 8q32 -27 32 -71q0 -22 -8 -53q-14 -54 -28 -107q-15 -63 -23 -131q47 77 129 188q95 130 144 173q5 4 8 4q5 0 7 -11q4 -28 -41 -86zM256 247q10 41 6 72q-3 21 -13 21q-13 0 -17 -25q-6 -41 24 -68zM248 219q-27 14 -46 41.5
t-19 56.5q-42 -34 -77 -95q-45 -77 -45 -145q0 -49 33 -49q59 0 118 109q24 44 36 82z" />
    <glyph glyph-name="onesuperior" unicode="&#xb9;" horiz-adv-x="863" 
d="M887 360q-13 -69 -86 -188q-116 -189 -204 -187q-31 1 -48.5 25t-14.5 56q-66 -81 -122 -76q-59 5 -59 75q0 30 12 66.5t37 87.5q-41 -21 -90 -19q-20 -76 -67 -137q-57 -75 -125 -75q-52 0 -89 49q-27 35 -27 85q0 64 42 140q30 54 73 90t87 39q41 3 68 -34
q17 -19 33 -39q17 -24 14 -71q-1 -11 -2 -20q85 3 147 104q6 10 36 54q12 18 25 1q14 -19 14 -44q0 -37 -32 -90q-55 -90 -80 -151q-14 -35 -14 -57q0 -26 17 -25q26 1 59 44q16 21 71 109q33 52 74 129q35 63 50 84q8 12 15 12q12 0 19 -23q5 -17 5 -31q0 -31 -16 -63
q-35 -61 -95 -173q-19 -40 -19 -65q0 -27 22 -27q27 0 68 45t81 116q12 98 52 164q30 50 53 55q11 2 15 -7.5t1 -27.5zM256 247q10 35 6 72q-2 21 -13 21q-13 0 -17 -25q-6 -41 24 -68zM249 219q-27 14 -46 41.5t-19 56.5q-45 -35 -78 -95q-44 -79 -44 -146q0 -49 33 -49
q25 0 57 29t60 81q23 44 37 82z" />
    <glyph glyph-name="ordmasculine" unicode="&#xba;" horiz-adv-x="444" 
d="M131 386q-18 2 -41 12q-28 14 -28 29q0 9 17 9q51 0 80 1q46 80 75 120q7 10 14 10q6 0 10 -10q7 -18 7 -37q0 -33 -22 -79q53 3 146 8q73 126 85 126q7 0 11 -10q7 -17 7 -37q0 -32 -20 -77q44 -4 62 -32q3 -5 3 -9q0 -10 -16 -9q-25 2 -75 0q-50 -84 -137 -252
q-19 -43 -19 -79q0 -56 39 -58q32 -1 72 43q36 39 67 101q5 10 12 10q6 0 9 -10q6 -20 -9.5 -55.5t-54.5 -70.5q-53 -47 -106 -45q-32 1 -56 23t-31 59q-59 -84 -136 -82q-38 1 -63.5 30t-25.5 77q0 39 18 84q31 75 106 210zM360 397l-145 -9q-52 -90 -66 -114
q-40 -72 -64 -125q-19 -42 -19 -78q0 -57 40 -59q31 -1 72 46q37 43 63 103q37 85 119 236z" />
    <glyph glyph-name="guillemotright" unicode="&#xbb;" horiz-adv-x="741" 
d="M579 -23q-92 -6 -140 38q-29 27 -32 65q-86 -158 -157 -319q-8 -18 -16 -3q-14 19 -14 46q0 26 12 64q30 97 177 364q-41 -31 -94 -26q-19 -77 -67 -141q-58 -79 -127 -79q-52 0 -90 49q-27 34 -27 84q0 65 43 141q30 54 73.5 90.5t86.5 39.5q40 3 67 -34q17 -19 34 -39
q17 -24 14 -71q0 -1 -3 -16q81 1 181 155q6 9 12 9q8 0 12 -11q9 -23 8 -45q51 47 95 47q30 0 51 -24q26 -29 26 -77q0 -59 -39 -143q-48 -102 -103 -136q124 6 188 143q4 9 10 9q7 0 10 -9q6 -19 -9 -54q-49 -108 -182 -117zM257 246q10 40 6 70q-3 22 -13 22
q-13 0 -17 -25q-7 -39 24 -67zM603 176q38 78 38 137q0 38 -22 38q-21 0 -56 -32t-66 -83q-6 -10 -37 -60q-19 -51 -19 -89q0 -58 34 -58q26 0 62 42t66 105zM250 221q-64 34 -66 95q-45 -40 -77 -95q-44 -77 -44 -147q0 -49 32 -49q58 0 118 110q24 44 37 86z" />
    <glyph glyph-name="onequarter" unicode="&#xbc;" horiz-adv-x="748" 
d="M777 154q4 -20 -19 -58q-47 -76 -191 -133q-120 -293 -210 -328q-10 -4 -19 -4q-21 0 -38 24q-28 39 -28 77q0 22 8 47q37 120 213 190q10 23 30 72q-56 -60 -108 -55q-64 6 -64 78q0 56 56 166q-43 -28 -92 -25q-20 -78 -68 -140q-58 -78 -127 -78q-53 0 -89 48
q-26 35 -26 85q0 65 42 140q70 124 159 130q39 3 67 -34q17 -19 35 -39q16 -24 13 -71l-1 -16q79 4 180 153q6 10 13 10t13 -9q13 -18 13 -42q0 -38 -32 -91q-58 -96 -77 -147q-13 -36 -13 -59q0 -26 16 -27q51 -4 142 148q43 82 121 217q7 11 14 11q11 0 18 -22
q6 -16 6 -30q0 -31 -17 -64q-45 -89 -134 -275q105 55 177 153q5 6 10 6q5 -1 7 -8zM257 246q9 46 6 70q-3 23 -14 23q-13 0 -16 -25q-6 -41 24 -68zM250 221q-63 34 -65 95q-44 -35 -79 -95q-43 -75 -43 -143q0 -52 33 -52q57 0 117 109q24 43 37 86zM477 -72
q-76 -44 -123 -118q-38 -61 -38 -104q0 -18 8 -18q17 0 63 69q50 75 90 171z" />
    <glyph glyph-name="onehalf" unicode="&#xbd;" horiz-adv-x="695" 
d="M484 149q-7 91 -24 231q-2 10 3.5 13.5t16.5 1.5q56 -12 65 -98q4 -33 7 -82q95 96 150 173q6 8 13 8q9 0 8 -13q-1 -26 -40.5 -82t-126.5 -139q6 -67 9 -89q8 -54 30 -54q25 -1 60 44q31 39 53 90q3 7 9 7q7 -1 8 -8q7 -34 -12 -68q-55 -97 -138 -99q-76 -1 -87 113
q0 1 -1 3q-138 -116 -211 -116q-75 0 -73 79q-59 -74 -122 -74q-38 0 -59.5 26.5t-21.5 70.5q0 72 52 150q54 82 115 125q52 36 95 36q30 0 45.5 -21.5t13.5 -51.5q22 42 36 60q10 12 16 12q11 0 18 -22q5 -17 5 -31q0 -31 -15 -62q-39 -65 -103 -182q-17 -37 -17 -60
q0 -26 21 -25q58 2 202 134zM235 172q58 103 58 148q0 23 -16 25q-24 2 -71.5 -41t-87.5 -107q-49 -78 -49 -138q0 -37 23 -37q59 0 143 150z" />
    <glyph glyph-name="threequarters" unicode="&#xbe;" horiz-adv-x="599" 
d="M389 146q-11 163 -25 233q-3 9 3 12.5t16 1.5q55 -13 65 -99q3 -27 8 -85q79 80 153 179q6 8 13 8q9 0 7 -13q-4 -30 -43 -84q-47 -65 -126 -140q3 -32 9 -86t30 -54q25 -1 59 44q31 39 53 90q4 7 10 6t8 -7q8 -30 -13 -68q-53 -97 -137 -99q-78 -2 -86 113v2
q-135 -108 -243 -113q-68 -3 -106.5 36t-38.5 102q0 55 29 112q37 73 92 118q50 41 93 41q18 0 31 -8q40 -23 58 -50q8 -12 8 -32q0 -51 -41 -103q-48 -62 -105 -62q-40 0 -79 32q-14 -40 -14 -73q0 -89 77 -83q99 8 235 129zM100 196q17 -11 35 -11q37 0 82 59t45 94
q0 14 -14 14q-25 0 -67 -39q-45 -43 -73 -100q-3 -6 -8 -17z" />
    <glyph glyph-name="questiondown" unicode="&#xbf;" horiz-adv-x="369" 
d="M342 562q-6 15 -6 30q0 42 32 42q22 0 35 -22q9 -16 9 -34q0 -17 -7 -30q-10 -17 -25 -17q-26 0 -38 31zM278 86q-63 -102 -157 -102q-36 0 -66 20q-53 35 -53 105q0 44 22 90q43 89 185 167q89 49 115 145q4 17 18 3q17 -17 17 -48q0 -21 -10 -45q-25 -59 -125.5 -117
t-144.5 -151q-21 -44 -21 -79q0 -31 20 -42q10 -5 21 -5q39 0 88.5 52.5t87.5 129.5q5 10 10 10q9 0 15 -21q5 -16 5 -28q0 -41 -27 -84z" />
    <glyph glyph-name="Agrave" unicode="&#xc0;" horiz-adv-x="442" 
d="M313 157q-20 -1 -108 -10q-64 -7 -91 -6q-47 -80 -76 -144q-7 -16 -18 -2q-10 13 -10 36q0 46 42 123q-25 14 -33 34q-4 10 -2 13q3 4 14 2q15 -2 45 -5q66 115 151 229q98 131 172 192q12 10 20 10t15 -9.5t24 -42.5q13 -33 0 -73q-48 -144 -73 -291q37 -12 45 -51
q1 -7 -1 -9q-3 -2 -10 0q-15 4 -43 6q-13 -96 -15 -160q0 -16 -15 -9q-36 16 -37 91q0 32 4 76zM152 201q61 8 169 17q28 191 74 308q-124 -139 -243 -325zM372 748q41 5 69.5 -20t69.5 -80q10 -13 -5 -14q-26 -2 -50 15q-18 13 -89 84q-13 13 5 15z" />
    <glyph glyph-name="Aacute" unicode="&#xc1;" horiz-adv-x="442" 
d="M313 157q-20 -1 -108 -10q-64 -7 -91 -6q-47 -80 -76 -144q-7 -16 -18 -2q-10 13 -10 36q0 46 42 123q-25 14 -33 34q-4 10 -2 13q3 4 14 2q15 -2 45 -5q66 115 151 229q98 131 172 192q12 10 20 10t15 -9.5t24 -42.5q13 -33 0 -73q-48 -144 -73 -291q37 -12 45 -51
q1 -7 -1 -9q-3 -2 -10 0q-15 4 -43 6q-13 -96 -15 -160q0 -16 -15 -9q-36 16 -37 91q0 32 4 76zM152 201q61 8 169 17q28 191 74 308q-124 -139 -243 -325zM564 731q15 -9 0 -16q-45 -23 -115 -54q-35 -11 -53 0q-14 6 0 15q35 23 95 58q16 7 34 7q23 0 39 -10z" />
    <glyph glyph-name="Acircumflex" unicode="&#xc2;" horiz-adv-x="442" 
d="M313 157q-20 -1 -108 -10q-64 -7 -91 -6q-47 -80 -76 -144q-7 -16 -18 -2q-10 13 -10 36q0 46 42 123q-25 14 -33 34q-4 10 -2 13q3 4 14 2q15 -2 45 -5q66 115 151 229q98 131 172 192q12 10 20 10t15 -9.5t24 -42.5q13 -33 0 -73q-48 -144 -73 -291q37 -12 45 -51
q1 -7 -1 -9q-3 -2 -10 0q-15 4 -43 6q-13 -96 -15 -160q0 -16 -15 -9q-36 16 -37 91q0 32 4 76zM152 201q61 8 169 17q28 191 74 308q-124 -139 -243 -325zM427 707l21 -14q-25 -17 -68 -41q-31 -17 -52 -9q-6 1 -6 6t5 9q42 31 116 81q7 4 13 4q11 1 20 -15q15 -26 41 -70
q7 -11 -6 -14q-28 -7 -53 19q-11 11 -31 44z" />
    <glyph glyph-name="Atilde" unicode="&#xc3;" horiz-adv-x="442" 
d="M313 157q-20 -1 -108 -10q-64 -7 -91 -6q-47 -80 -76 -144q-7 -16 -18 -2q-10 13 -10 36q0 46 42 123q-25 14 -33 34q-4 10 -2 13q3 4 14 2q15 -2 45 -5q66 115 151 229q98 131 172 192q12 10 20 10t15 -9.5t24 -42.5q13 -33 0 -73q-48 -144 -73 -291q37 -12 45 -51
q1 -7 -1 -9q-3 -2 -10 0q-15 4 -43 6q-13 -96 -15 -160q0 -16 -15 -9q-36 16 -37 91q0 32 4 76zM152 201q61 8 169 17q28 191 74 308q-124 -139 -243 -325zM345 690q15 36 62 36q20 0 57.5 -14.5t59.5 -14.5q14 0 28 4q8 2 11 -1t-1 -11q-18 -32 -55 -35q-26 -2 -68 14
q-45 17 -64 17q-12 0 -22 -4q-6 -2 -8 0q-2 3 0 9z" />
    <glyph glyph-name="Adieresis" unicode="&#xc4;" horiz-adv-x="442" 
d="M313 157q-20 -1 -108 -10q-64 -7 -91 -6q-47 -80 -76 -144q-7 -16 -18 -2q-10 13 -10 36q0 46 42 123q-25 14 -33 34q-4 10 -2 13q3 4 14 2q15 -2 45 -5q66 115 151 229q98 131 172 192q12 10 20 10t15 -9.5t24 -42.5q13 -33 0 -73q-48 -144 -73 -291q37 -12 45 -51
q1 -7 -1 -9q-3 -2 -10 0q-15 4 -43 6q-13 -96 -15 -160q0 -16 -15 -9q-36 16 -37 91q0 32 4 76zM152 201q61 8 169 17q28 191 74 308q-124 -139 -243 -325zM473 708q12 29 38 29q23 0 23 -28q0 -10 -4 -21q-11 -28 -38 -28q-23 0 -23 28q0 10 4 20zM395 737q24 0 24 -30
q0 -17 -12.5 -33.5t-29.5 -16.5q-24 0 -24 29q0 16 13.5 33.5t28.5 17.5z" />
    <glyph glyph-name="Aring" unicode="&#xc5;" horiz-adv-x="442" 
d="M313 157q-20 -1 -108 -10q-64 -7 -91 -6q-47 -80 -76 -144q-7 -16 -18 -2q-10 13 -10 36q0 46 42 123q-25 14 -33 34q-4 10 -2 13q3 4 14 2q15 -2 45 -5q66 115 151 229q98 131 172 192q12 10 20 10t15 -9.5t24 -42.5q13 -33 0 -73q-48 -144 -73 -291q37 -12 45 -51
q1 -7 -1 -9q-3 -2 -10 0q-15 4 -43 6q-13 -96 -15 -160q0 -16 -15 -9q-36 16 -37 91q0 32 4 76zM152 201q61 8 169 17q28 191 74 308q-124 -139 -243 -325zM538 753q23 -19 23 -46q0 -23 -17 -45t-39 -22q-12 0 -23 8q-27 19 -27 50q0 24 16 45t39 21q15 0 28 -11zM527 738
q-2 2 -5 2q-17 0 -29 -27q-17 -37 -1 -47q2 -1 4 -1q13 0 26 23q8 13 10 29t-5 21z" />
    <glyph glyph-name="AE" unicode="&#xc6;" horiz-adv-x="651" 
d="M128 142q-65 -84 -104 -151q-8 -13 -16 0q-7 11 -7 29q0 54 54 129q-23 11 -31 28q-4 9 -2 12t12 3q19 -1 53 3q73 100 171 203q107 114 188 169q30 20 60 27q112 24 202 26q67 1 88 -50q3 -7 0 -11q-3 -5 -12 -4q-69 6 -212 -27q-64 -103 -142 -248q47 9 79 10
q66 2 82 -51q2 -7 0 -11q-3 -4 -12 -4q-78 1 -192 -27q-47 -97 -65 -140q81 25 152 29q70 4 89 -48q3 -7 1 -11t-11 -4q-73 2 -216 -37q-18 -5 -27 -5q-15 0 -24 13.5t-23 38.5q-13 25 0 58q19 49 36 87q-117 -31 -171 -36zM482 516q-138 -118 -292 -298q52 16 148 42
q59 117 144 256z" />
    <glyph glyph-name="Ccedilla" unicode="&#xc7;" horiz-adv-x="462" 
d="M121 10q-1 0 -1 1h-1q-36 19 -59 62q-26 47 -27 106q-3 145 99 281q88 117 187 155q44 17 77 17q35 0 58 -20q41 -36 53 -73q5 -16 5 -32q0 -27 -14 -56q-12 -24 -40 -99q-6 -16 -22 -6q-30 20 -30 60q0 26 21 77.5t21 71.5q0 27 -25 27q-44 0 -116 -55
q-82 -62 -136 -151q-66 -110 -66 -219q0 -85 37 -115q21 -18 49 -18q47 0 100.5 48.5t96.5 133.5q4 8 10 8q17 0 17 -42q0 -39 -30 -82q-25 -35 -57 -58q-58 -41 -126 -41q-20 0 -39 4q-10 -20 -12 -25q25 -1 38 -27.5t2 -45.5q-18 -30 -54 -30q-29 0 -48 26q-5 6 -2 11
q2 3 9 3q31 -1 54 9q20 9 16 16t-32 3q-19 -3 -30.5 10.5t-4.5 27.5q6 12 22 37z" />
    <glyph glyph-name="Egrave" unicode="&#xc8;" horiz-adv-x="368" 
d="M218 525q-32 13 -42 51q-2 7 0.5 9.5t10.5 2.5q48 -3 135 10q96 15 114 15q58 1 76 -49q2 -7 0 -10q-3 -4 -11 -3q-45 1 -106 -9q-48 -9 -97 -18q-46 -69 -138 -236q35 6 71 8q66 3 82 -45q5 -15 -10 -15q-73 0 -185 -28q-47 -90 -77 -158q90 28 155 31q68 3 85 -44
q3 -7 1 -11q-3 -4 -11 -4q-67 1 -221 -40q-28 -7 -42 10q-4 4 -21 37q-12 22 1 57q73 197 230 439zM258 705q19 12 44 12q14 0 27 -5q39 -14 95 -50q13 -8 0 -15q-21 -10 -52 -3q-4 1 -113 45q-6 3 -6 8t5 8z" />
    <glyph glyph-name="Eacute" unicode="&#xc9;" horiz-adv-x="368" 
d="M218 525q-32 13 -42 51q-2 7 0.5 9.5t10.5 2.5q48 -3 135 10q96 15 114 15q58 1 76 -49q2 -7 0 -10q-3 -4 -11 -3q-45 1 -106 -9q-48 -9 -97 -18q-46 -69 -138 -236q35 6 71 8q66 3 82 -45q5 -15 -10 -15q-73 0 -185 -28q-47 -90 -77 -158q90 28 155 31q68 3 85 -44
q3 -7 1 -11q-3 -4 -11 -4q-67 1 -221 -40q-28 -7 -42 10q-4 4 -21 37q-12 22 1 57q73 197 230 439zM465 705q15 -8 0 -16q-44 -23 -115 -54q-33 -10 -53 -1q-14 6 1 16q67 46 95 58q15 7 32 7q22 0 40 -10z" />
    <glyph glyph-name="Ecircumflex" unicode="&#xca;" horiz-adv-x="368" 
d="M218 525q-32 13 -42 51q-2 7 0.5 9.5t10.5 2.5q48 -3 135 10q96 15 114 15q58 1 76 -49q2 -7 0 -10q-3 -4 -11 -3q-45 1 -106 -9q-48 -9 -97 -18q-46 -69 -138 -236q35 6 71 8q66 3 82 -45q5 -15 -10 -15q-73 0 -185 -28q-47 -90 -77 -158q90 28 155 31q68 3 85 -44
q3 -7 1 -11q-3 -4 -11 -4q-67 1 -221 -40q-28 -7 -42 10q-4 4 -21 37q-12 22 1 57q73 197 230 439zM364 679q-32 -26 -59 -41q-32 -18 -51 -12q-14 5 -1 15q40 34 113 90q7 5 12 5q14 1 22 -13q24 -42 45 -66q9 -11 -6 -15q-27 -8 -54 15q-7 6 -21 22z" />
    <glyph glyph-name="Edieresis" unicode="&#xcb;" horiz-adv-x="368" 
d="M218 525q-32 13 -42 51q-2 7 0.5 9.5t10.5 2.5q48 -3 135 10q96 15 114 15q58 1 76 -49q2 -7 0 -10q-3 -4 -11 -3q-45 1 -106 -9q-48 -9 -97 -18q-46 -69 -138 -236q35 6 71 8q66 3 82 -45q5 -15 -10 -15q-73 0 -185 -28q-47 -90 -77 -158q90 28 155 31q68 3 85 -44
q3 -7 1 -11q-3 -4 -11 -4q-67 1 -221 -40q-28 -7 -42 10q-4 4 -21 37q-12 22 1 57q73 197 230 439zM421 722q25 0 25 -30q0 -17 -12.5 -32.5t-29.5 -15.5q-26 0 -26 29q0 16 13.5 32.5t29.5 16.5zM310 712q24 0 24 -29q0 -10 -4 -20q-11 -29 -38 -29q-25 0 -25 29
q0 17 13 33t30 16z" />
    <glyph glyph-name="Igrave" unicode="&#xcc;" horiz-adv-x="182" 
d="M269 616q6 9 12 9q20 0 20 -48t-38 -115q-79 -139 -118 -212q-80 -147 -127 -254q-6 -13 -16 -2q-16 18 -16 50q0 27 12 61q35 98 124 263q83 156 147 248zM304 759q38 -11 47.5 -47.5t15.5 -93.5q1 -9 -2 -12t-9 -1q-23 6 -37 40q-8 32 -28 103q-2 7 2 10t11 1z" />
    <glyph glyph-name="Iacute" unicode="&#xcd;" horiz-adv-x="182" 
d="M269 616q6 9 12 9q20 0 20 -48t-38 -115q-79 -139 -118 -212q-80 -147 -127 -254q-6 -13 -16 -2q-16 18 -16 50q0 27 12 61q35 98 124 263q83 156 147 248zM462 728q6 -3 6 -8q1 -5 -6 -9q-43 -24 -114 -57q-35 -11 -52 -3q-13 6 1 17q56 43 93 61q15 7 33 7q20 0 39 -8z
" />
    <glyph glyph-name="Icircumflex" unicode="&#xce;" horiz-adv-x="182" 
d="M269 616q6 9 12 9q20 0 20 -48t-38 -115q-79 -139 -118 -212q-80 -147 -127 -254q-6 -13 -16 -2q-16 18 -16 50q0 27 12 61q35 98 124 263q83 156 147 248zM311 682q-14 -10 -60 -36q-31 -17 -51 -8q-14 6 0 15q42 31 116 81q7 4 13 4q11 1 20 -15q27 -51 41 -70
q8 -11 -6 -14q-28 -7 -54 19q-9 9 -19 24z" />
    <glyph glyph-name="Idieresis" unicode="&#xcf;" horiz-adv-x="182" 
d="M269 616q6 9 12 9q20 0 20 -48t-38 -115q-79 -139 -118 -212q-80 -147 -127 -254q-6 -13 -16 -2q-16 18 -16 50q0 27 12 61q35 98 124 263q83 156 147 248zM390 728q18 -5 18 -28q0 -16 -12 -32.5t-27 -16.5q-12 0 -20 10t-8 22q0 18 16 34t33 11zM281 730q23 0 23 -28
q0 -10 -5 -21q-12 -29 -37 -29q-24 0 -24 28q0 17 13 33.5t30 16.5z" />
    <glyph glyph-name="Eth" unicode="&#xd0;" horiz-adv-x="484" 
d="M232 459q6 -14 6 -29q0 -46 -33 -46q-22 0 -35 24q-10 18 -10 36q0 16 9 30t25 14q26 0 38 -29zM339 209q83 84 148 174q6 9 13 9q8 0 7 -13q-2 -32 -37 -80q-40 -55 -127 -140q2 -30 3 -60q3 -37 10.5 -58.5t23.5 -22.5q24 -1 60 43q31 39 55 90q3 7 9 6q5 0 7 -7
q9 -30 -12 -67q-57 -99 -140 -99q-77 0 -84 113q-131 -113 -205 -113q-80 0 -80 83q0 28 11 63q16 52 66 141q40 71 63 103q9 12 15 12q4 0 9 -6q15 -15 15 -48q0 -30 -14 -62q-34 -58 -89 -165q-15 -36 -15 -60q0 -33 28 -31q56 3 193 129q-12 175 -23 231q-2 10 3.5 13.5
t16.5 1.5q53 -9 63 -99q4 -35 7 -81z" />
    <glyph glyph-name="Ntilde" unicode="&#xd1;" horiz-adv-x="459" 
d="M241 429q-170 -292 -217 -435q-6 -17 -17 -4q-17 19 -17 53q0 27 12 59q66 180 259 505q12 19 26 9q39 -28 39 -76q0 -19 -5 -48q-22 -131 -33 -360q112 254 258 479q5 8 11 8q7 0 12 -10q9 -17 9 -37q0 -42 -40 -108q-48 -79 -123 -222q-80 -154 -122 -249
q-6 -14 -20 -6q-43 23 -49 104q-10 125 17 338zM320 669q16 39 62 37q19 -1 56 -15.5t59 -14.5q15 0 30 5q8 2 11 -1q3 -4 -1 -12q-18 -32 -54 -35q-26 -2 -70 14t-63 16q-11 0 -22 -4q-6 -2 -8 1q-3 2 0 9z" />
    <glyph glyph-name="Ograve" unicode="&#xd2;" horiz-adv-x="537" 
d="M476 597q85 -37 85 -159q0 -112 -64 -230q-55 -101 -123 -161q-77 -67 -156 -67q-32 0 -64 12q-114 42 -114 187q0 146 108 284q93 119 192 154q29 10 57 10q50 0 79 -30zM424 236q71 131 71 241q0 99 -57 99q-47 0 -116 -51q-77 -56 -136 -148q-77 -120 -77 -237
q0 -116 76 -116q53 0 119.5 57.5t119.5 154.5zM385 733q39 11 72 -13q30 -22 76 -73q10 -11 -4 -14q-24 -5 -51 10l-96 75q-13 10 3 15z" />
    <glyph glyph-name="Oacute" unicode="&#xd3;" horiz-adv-x="537" 
d="M476 597q85 -37 85 -159q0 -112 -64 -230q-55 -101 -123 -161q-77 -67 -156 -67q-32 0 -64 12q-114 42 -114 187q0 146 108 284q93 119 192 154q29 10 57 10q50 0 79 -30zM424 236q71 131 71 241q0 99 -57 99q-47 0 -116 -51q-77 -56 -136 -148q-77 -120 -77 -237
q0 -116 76 -116q53 0 119.5 57.5t119.5 154.5zM585 715q16 -10 -1 -16q-47 -18 -120 -44q-29 -8 -53 5q-12 6 3 15q66 38 100 50q11 4 23 4q26 0 48 -14z" />
    <glyph glyph-name="Ocircumflex" unicode="&#xd4;" horiz-adv-x="537" 
d="M476 597q85 -37 85 -159q0 -112 -64 -230q-55 -101 -123 -161q-77 -67 -156 -67q-32 0 -64 12q-114 42 -114 187q0 146 108 284q93 119 192 154q29 10 57 10q50 0 79 -30zM424 236q71 131 71 241q0 99 -57 99q-47 0 -116 -51q-77 -56 -136 -148q-77 -120 -77 -237
q0 -116 76 -116q53 0 119.5 57.5t119.5 154.5zM425 687q-41 -27 -59 -35q-32 -15 -52 -9q-6 2 -6 6q0 5 5 9q42 32 116 81q7 4 13 4q12 1 20 -14q14 -26 41 -70q7 -12 -6 -15q-27 -7 -53 19q-4 4 -19 24z" />
    <glyph glyph-name="Otilde" unicode="&#xd5;" horiz-adv-x="537" 
d="M476 597q85 -37 85 -159q0 -112 -64 -230q-55 -101 -123 -161q-77 -67 -156 -67q-32 0 -64 12q-114 42 -114 187q0 146 108 284q93 119 192 154q29 10 57 10q50 0 79 -30zM424 236q71 131 71 241q0 99 -57 99q-47 0 -116 -51q-77 -56 -136 -148q-77 -120 -77 -237
q0 -116 76 -116q53 0 119.5 57.5t119.5 154.5zM376 683q21 36 65 30q19 -2 60 -23q38 -19 64 -19q9 0 19 2q8 1 10 -3q3 -4 -2 -11q-22 -30 -57 -29q-27 1 -71 23t-66 22q-7 0 -14 -2t-9 1q-3 3 1 9z" />
    <glyph glyph-name="Odieresis" unicode="&#xd6;" horiz-adv-x="537" 
d="M476 597q85 -37 85 -159q0 -112 -64 -230q-55 -101 -123 -161q-77 -67 -156 -67q-32 0 -64 12q-114 42 -114 187q0 146 108 284q93 119 192 154q29 10 57 10q50 0 79 -30zM424 236q71 131 71 241q0 99 -57 99q-47 0 -116 -51q-77 -56 -136 -148q-77 -120 -77 -237
q0 -116 76 -116q53 0 119.5 57.5t119.5 154.5zM485 729q22 0 22 -28q0 -17 -12 -34.5t-29 -17.5q-24 0 -24 31q0 17 13 33t30 16zM332 698q12 28 37 28t25 -28q0 -17 -13 -33t-30 -16q-24 0 -24 28q0 10 5 21z" />
    <glyph glyph-name="multiply" unicode="&#xd7;" horiz-adv-x="624" 
d="M653 151q9 -24 -11 -63q-51 -100 -131 -103q-76 -3 -93 112q0 12 -3 30q-87 -74 -138 -136q-7 -9 -15 -9q-7 0 -6 11q2 39 61 103q25 27 90 81q-4 26 -23 104q-15 64 -17 103q0 10 19 9q56 -3 71 -75q5 -25 15 -88q100 83 151 151q7 10 14 10q8 0 8 -14q0 -35 -55 -100
q-14 -16 -112 -96l18 -109q9 -55 32 -55q47 -1 109 134q3 7 9 7q5 -1 7 -7zM342 218q-10 -11 -27 -13q-17 -68 -59 -128q-46 -65 -99 -83q-17 -6 -34 -6q-54 0 -92 50q-26 35 -26 84q0 65 42 141q30 54 71 89q45 38 88 41q41 3 68 -34l34 -40q17 -25 13 -70q0 -7 -2 -23
q3 0 9.5 1t10.5 1q11 0 3 -10zM256 245q12 47 8 74q-3 21 -14 21q-17 0 -17 -37q0 -36 23 -58zM249 218q-8 3 -19 12q-45 35 -46 88q-47 -40 -77 -94q-44 -79 -44 -147q0 -50 33 -50q59 0 118 111q22 42 35 80z" />
    <glyph glyph-name="Oslash" unicode="&#xd8;" horiz-adv-x="525" 
d="M540 527q18 -38 18 -91q0 -109 -64 -228q-54 -100 -122 -160q-76 -66 -155 -66q-31 0 -62 11t-52 32q-17 -21 -48 -64q-10 -14 -14 2q-7 28 22 82q5 5 8 13q-31 52 -31 120q1 146 108 283q93 119 191 152q30 10 57 10q49 0 78 -31q23 -9 32 -20q38 40 64 63q16 14 19 -3
q6 -37 -48 -104zM110 116q133 185 369 429q-13 29 -44 29q-47 0 -115 -50q-76 -57 -135 -148q-86 -133 -75 -260zM493 473q-85 -94 -171 -187q-115 -128 -194 -229q19 -32 56 -32q53 0 119.5 57t117.5 153q72 134 72 238z" />
    <glyph glyph-name="Ugrave" unicode="&#xd9;" horiz-adv-x="452" 
d="M76 -12q-76 31 -76 120q0 27 8 60q34 140 232 439q5 8 12 8q6 0 12 -9q11 -18 11 -42q0 -38 -30 -97q-48 -85 -97 -171q-63 -114 -78 -179q-7 -28 -7 -48q0 -42 27 -52q10 -4 21 -4q85 0 190 203q127 246 219 392q5 9 12 9q20 0 20 -48q0 -39 -21 -86q-30 -67 -101 -194
q-79 -142 -125 -206q-76 -106 -174 -106q-28 0 -55 11zM301 717q37 12 71 -9q25 -16 80 -69q11 -10 -3 -15q-21 -7 -51 8q-34 23 -101 68q-6 4 -4 10q1 5 8 7z" />
    <glyph glyph-name="Uacute" unicode="&#xda;" horiz-adv-x="452" 
d="M76 -12q-76 31 -76 120q0 27 8 60q34 140 232 439q5 8 12 8q6 0 12 -9q11 -18 11 -42q0 -38 -30 -97q-48 -85 -97 -171q-63 -114 -78 -179q-7 -28 -7 -48q0 -42 27 -52q10 -4 21 -4q85 0 190 203q127 246 219 392q5 9 12 9q20 0 20 -48q0 -39 -21 -86q-30 -67 -101 -194
q-79 -142 -125 -206q-76 -106 -174 -106q-28 0 -55 11zM509 687q6 -3 5 -9q0 -5 -7 -8q-46 -19 -120 -43q-33 -6 -52 3q-16 8 2 17q74 39 100 48q12 4 25 4q25 0 47 -12z" />
    <glyph glyph-name="Ucircumflex" unicode="&#xdb;" horiz-adv-x="452" 
d="M76 -12q-76 31 -76 120q0 27 8 60q34 140 232 439q5 8 12 8q6 0 12 -9q11 -18 11 -42q0 -38 -30 -97q-48 -85 -97 -171q-63 -114 -78 -179q-7 -28 -7 -48q0 -42 27 -52q10 -4 21 -4q85 0 190 203q127 246 219 392q5 9 12 9q20 0 20 -48q0 -39 -21 -86q-30 -67 -101 -194
q-79 -142 -125 -206q-76 -106 -174 -106q-28 0 -55 11zM424 679q-15 -10 -60 -35q-28 -15 -51 -9q-15 4 0 15q42 31 116 82q5 3 11 3q12 2 21 -15q25 -46 42 -70q7 -10 -7 -13q-28 -7 -53 18q-4 4 -19 24z" />
    <glyph glyph-name="Udieresis" unicode="&#xdc;" horiz-adv-x="452" 
d="M76 -12q-76 31 -76 120q0 27 8 60q34 140 232 439q5 8 12 8q6 0 12 -9q11 -18 11 -42q0 -38 -30 -97q-48 -85 -97 -171q-63 -114 -78 -179q-7 -28 -7 -48q0 -42 27 -52q10 -4 21 -4q85 0 190 203q127 246 219 392q5 9 12 9q20 0 20 -48q0 -39 -21 -86q-30 -67 -101 -194
q-79 -142 -125 -206q-76 -106 -174 -106q-28 0 -55 11zM478 715q24 0 24 -28q0 -17 -12.5 -33.5t-28.5 -16.5q-25 0 -25 29q0 16 13 32.5t29 16.5zM363 713q24 0 24 -28q0 -18 -13 -34t-30 -16q-23 0 -23 28q0 17 13 33.5t29 16.5z" />
    <glyph glyph-name="Yacute" unicode="&#xdd;" horiz-adv-x="672" 
d="M483 148q-7 92 -24 232q-2 9 3 12.5t15 2.5q58 -13 67 -99q4 -35 7 -82q95 96 150 173q6 8 13 8q8 0 7 -13q-1 -24 -41 -82q-35 -51 -125 -138q4 -63 7 -90q7 -53 32 -54t59 44q31 39 53 90q4 7 10 7q7 -1 8 -8q7 -33 -13 -68q-53 -95 -137 -98q-76 -3 -87 112v4
q-142 -116 -213 -116q-39 0 -59.5 23.5t-16.5 64.5q-71 -91 -136 -86q-64 5 -64 77q0 31 13 68q42 121 138 253q12 16 25 1q13 -20 13 -44q0 -37 -32 -90q-56 -92 -78 -146q-13 -33 -13 -56q0 -28 18 -30q52 -4 148 152q46 85 122 213q8 12 15 12q12 0 19 -23q5 -17 5 -32
q0 -30 -15 -62q-38 -67 -101 -188q-15 -35 -15 -55q0 -23 20 -22q57 2 203 133z" />
    <glyph glyph-name="Thorn" unicode="&#xde;" horiz-adv-x="604" 
d="M632 386q-24 0 -38 22q-10 16 -10 34q0 17 9 32t25 15q26 0 38 -30q6 -16 6 -30q0 -43 -30 -43zM639 149q7 -18 -16 -59q-27 -47 -82 -82q-40 -26 -118 -57q-62 -148 -91 -201q-55 -104 -108 -133q-10 -5 -20 -5q-23 0 -40 24q-25 37 -25 77q0 21 7 43q41 128 204 200
q3 9 38 89q-54 -43 -158 -81q-62 -135 -102 -200q-63 -100 -119 -120q-10 -4 -18 -4q-22 0 -38 26q-27 42 -27 75q0 23 10 49q46 122 220 181q5 11 15 33.5t15 33.5q-49 -51 -101 -51q-38 0 -59 27t-21 71q0 72 51 148q55 82 116 124q52 37 94 37q29 0 44.5 -19.5
t15.5 -48.5q15 28 34 57q8 12 14 12q11 0 18 -22q6 -16 6 -30q0 -31 -17 -64q-45 -90 -132 -275q123 61 187 149q81 165 119 221q8 12 14 12q11 0 18 -20q4 -15 4 -29q0 -32 -15 -67q-46 -90 -136 -278q118 62 181 158q12 14 18 -1zM239 169q59 101 59 150q0 23 -15 24
q-25 2 -72.5 -41.5t-87.5 -108.5q-49 -78 -49 -136q0 -37 24 -38q53 -1 141 150zM139 -69q-78 -41 -128 -114q-41 -61 -41 -102q0 -17 9 -17q17 0 64 65q50 70 96 168zM331 -88q-70 -46 -114 -121q-36 -62 -36 -103q0 -17 6 -17q14 0 56 67q49 76 88 174z" />
    <glyph glyph-name="germandbls" unicode="&#xdf;" horiz-adv-x="410" 
d="M448 405q-48 -63 -133 -96q69 -23 69 -94q0 -67 -66 -142q-69 -78 -150 -84q-50 -4 -81 31q-6 7 -4 11q2 5 12 5q42 -1 89.5 22t79.5 61q64 75 64 124q0 15 -8 23q-17 16 -61 7q-7 -1 -13 -1q-30 0 -51 36q-9 16 8 21q105 32 173 100q59 59 59 109q0 40 -38 40
q-56 0 -142 -119q-50 -69 -118 -200q-73 -140 -119 -260q-6 -17 -16 -3q-15 22 -15 49q0 25 11 61q20 64 72 171q54 113 104 187q75 111 139 141q33 15 65 15q50 0 79 -36t29 -79q0 -49 -38 -100z" />
    <glyph glyph-name="agrave" unicode="&#xe0;" 
d="M324 325q22 41 36 61q8 11 15 11q11 0 18 -23q5 -17 5 -31q0 -31 -15 -62q-36 -60 -96 -173q-18 -41 -18 -67q0 -31 26 -30q29 2 68 45q34 38 63 94q9 17 16 1q10 -22 -9 -62q-20 -44 -61 -75q-43 -34 -83 -32q-82 5 -82 82q-61 -78 -125 -78q-39 0 -60.5 27t-21.5 71
q0 73 53 150q57 83 117 126q51 37 93 37q31 0 47 -20.5t14 -51.5zM237 170q59 102 59 150q0 23 -16 25q-25 2 -71 -41q-49 -45 -89 -110q-50 -80 -50 -139q0 -35 23 -36q56 -1 144 151zM222 513q19 0 35 -8q38 -20 88 -61q11 -9 -1 -14q-26 -10 -52 1q-17 7 -107 59
q-13 8 2 15.5t35 7.5z" />
    <glyph glyph-name="aacute" unicode="&#xe1;" 
d="M324 325q22 41 36 61q8 11 15 11q11 0 18 -23q5 -17 5 -31q0 -31 -15 -62q-36 -60 -96 -173q-18 -41 -18 -67q0 -31 26 -30q29 2 68 45q34 38 63 94q9 17 16 1q10 -22 -9 -62q-20 -44 -61 -75q-43 -34 -83 -32q-82 5 -82 82q-61 -78 -125 -78q-39 0 -60.5 27t-21.5 71
q0 73 53 150q57 83 117 126q51 37 93 37q31 0 47 -20.5t14 -51.5zM237 170q59 102 59 150q0 23 -16 25q-25 2 -71 -41q-49 -45 -89 -110q-50 -80 -50 -139q0 -35 23 -36q56 -1 144 151zM444 504q15 -9 0 -16q-45 -23 -115 -54q-33 -10 -52 -1q-13 6 1 16q61 43 95 58
q15 7 32 7q23 0 39 -10z" />
    <glyph glyph-name="acircumflex" unicode="&#xe2;" 
d="M324 325q22 41 36 61q8 11 15 11q11 0 18 -23q5 -17 5 -31q0 -31 -15 -62q-36 -60 -96 -173q-18 -41 -18 -67q0 -31 26 -30q29 2 68 45q34 38 63 94q9 17 16 1q10 -22 -9 -62q-20 -44 -61 -75q-43 -34 -83 -32q-82 5 -82 82q-61 -78 -125 -78q-39 0 -60.5 27t-21.5 71
q0 73 53 150q57 83 117 126q51 37 93 37q31 0 47 -20.5t14 -51.5zM237 170q59 102 59 150q0 23 -16 25q-25 2 -71 -41q-49 -45 -89 -110q-50 -80 -50 -139q0 -35 23 -36q56 -1 144 151zM290 471q-22 -14 -67 -38q-23 -10 -44 -6q-7 1 -7 6t6 9q42 32 116 82l13 3
q11 2 20 -13q27 -49 41 -70q8 -12 -6 -15q-28 -7 -53 18q-11 11 -19 24z" />
    <glyph glyph-name="atilde" unicode="&#xe3;" 
d="M324 325q22 41 36 61q8 11 15 11q11 0 18 -23q5 -17 5 -31q0 -31 -15 -62q-36 -60 -96 -173q-18 -41 -18 -67q0 -31 26 -30q29 2 68 45q34 38 63 94q9 17 16 1q10 -22 -9 -62q-20 -44 -61 -75q-43 -34 -83 -32q-82 5 -82 82q-61 -78 -125 -78q-39 0 -60.5 27t-21.5 71
q0 73 53 150q57 83 117 126q51 37 93 37q31 0 47 -20.5t14 -51.5zM237 170q59 102 59 150q0 23 -16 25q-25 2 -71 -41q-49 -45 -89 -110q-50 -80 -50 -139q0 -35 23 -36q56 -1 144 151zM189 442q7 21 28.5 34.5t44.5 13.5q14 0 41.5 -6.5t42.5 -6.5q23 0 43 10q7 3 10 1
q3 -3 0 -11q-20 -47 -76 -47q-16 0 -46 6t-43 6q-20 0 -35 -8q-7 -3 -9 -1q-3 3 -1 9z" />
    <glyph glyph-name="adieresis" unicode="&#xe4;" 
d="M324 325q22 41 36 61q8 11 15 11q11 0 18 -23q5 -17 5 -31q0 -31 -15 -62q-36 -60 -96 -173q-18 -41 -18 -67q0 -31 26 -30q29 2 68 45q34 38 63 94q9 17 16 1q10 -22 -9 -62q-20 -44 -61 -75q-43 -34 -83 -32q-82 5 -82 82q-61 -78 -125 -78q-39 0 -60.5 27t-21.5 71
q0 73 53 150q57 83 117 126q51 37 93 37q31 0 47 -20.5t14 -51.5zM237 170q59 102 59 150q0 23 -16 25q-25 2 -71 -41q-49 -45 -89 -110q-50 -80 -50 -139q0 -35 23 -36q56 -1 144 151zM366 504q24 0 24 -30q0 -17 -12.5 -34t-28.5 -17q-25 0 -25 30q0 17 13.5 34t28.5 17z
M256 502q25 0 25 -29q0 -10 -5 -20q-10 -29 -37 -29q-23 0 -23 28q0 18 11.5 34t28.5 16z" />
    <glyph glyph-name="aring" unicode="&#xe5;" 
d="M324 325q22 41 36 61q8 11 15 11q11 0 18 -23q5 -17 5 -31q0 -31 -15 -62q-36 -60 -96 -173q-18 -41 -18 -67q0 -31 26 -30q29 2 68 45q34 38 63 94q9 17 16 1q10 -22 -9 -62q-20 -44 -61 -75q-43 -34 -83 -32q-82 5 -82 82q-61 -78 -125 -78q-39 0 -60.5 27t-21.5 71
q0 73 53 150q57 83 117 126q51 37 93 37q31 0 47 -20.5t14 -51.5zM237 170q59 102 59 150q0 23 -16 25q-25 2 -71 -41q-49 -45 -89 -110q-50 -80 -50 -139q0 -35 23 -36q56 -1 144 151zM361 535q22 -18 22 -44q0 -19 -12 -41q-15 -28 -43 -28q-13 0 -24 8q-26 19 -26 51
q0 24 15.5 44.5t38.5 20.5q15 0 29 -11zM345 520q-18 0 -29 -25q-16 -35 -2 -46q4 -3 13.5 2.5t16.5 18.5q11 20 11 37q0 13 -10 13z" />
    <glyph glyph-name="ae" unicode="&#xe6;" horiz-adv-x="555" 
d="M571 89q-73 -109 -237 -109q-121 0 -124 87q-64 -83 -129 -83q-38 0 -58.5 27t-20.5 70q0 74 53 151q56 81 116 124q52 37 93 37q29 0 45.5 -20.5t14.5 -49.5q16 31 35 59q8 12 15 12q20 0 23 -49q45 32 83 32q19 0 32 -9q21 -14 35 -35q8 -12 8 -33q0 -51 -40 -101
q-48 -60 -108 -60q-43 0 -85 35q-49 -91 -49 -121q0 -47 64 -47q83 0 146 47q44 33 89 100q4 6 9 5q6 0 8 -6q9 -23 -18 -63zM334 194q19 -13 38 -13q37 0 83 58t46 93q0 15 -14 15q-33 0 -86 -61q-38 -44 -67 -92zM280 342q-25 2 -72.5 -41.5t-86.5 -107.5
q-50 -82 -50 -141q0 -36 23 -37q52 -1 142 153q59 101 59 150q0 23 -15 24z" />
    <glyph glyph-name="ccedilla" unicode="&#xe7;" horiz-adv-x="310" 
d="M66 0q-65 33 -65 121q0 56 30 115q37 74 91 118q50 40 92 40q18 0 32 -8q39 -23 55 -55q6 -12 6 -26q0 -22 -17 -59q-27 -61 -28 -64q-6 -16 -21 -8q-30 15 -30 54q0 15 6 33q4 12 19 45q12 26 12 36q0 11 -10 11q-20 0 -60 -41q-42 -44 -71 -102q-32 -65 -32 -118
q0 -78 57 -79q104 -1 197 142q4 6 9 6q6 0 9 -7q8 -20 -18 -60q-29 -46 -83 -77t-110 -32q-10 0 -29 2q-7 -11 -12 -23q22 -1 36 -26q12 -21 1 -42q-14 -28 -50 -28q-28 0 -44 24q-4 6 -2 10q2 3 8 3q29 -2 50 8q18 8 14 15q-5 9 -27 3q-17 -4 -28.5 8.5t-5.5 27.5
q3 6 19 33z" />
    <glyph glyph-name="egrave" unicode="&#xe8;" horiz-adv-x="320" 
d="M92 171q-14 -41 -14 -76q0 -79 59 -82q103 -5 199 142q10 15 17 -1q10 -22 -17 -62q-32 -47 -85.5 -77t-110.5 -31q-64 -1 -100 37.5t-36 99.5q0 56 30 115q38 75 92 120q50 40 93 40q19 0 32 -8q36 -21 59 -52q9 -12 9 -34q0 -52 -41 -102q-50 -61 -107 -61
q-40 0 -79 32zM101 193q17 -11 34 -11q39 0 85 61q44 58 44 93q0 15 -13 15q-25 0 -67 -39q-46 -43 -75 -102q-3 -6 -8 -17zM175 499q37 12 71 -9q25 -16 81 -70q11 -11 -3 -14q-26 -6 -52 8q-9 5 -100 69q-14 10 3 16z" />
    <glyph glyph-name="eacute" unicode="&#xe9;" horiz-adv-x="320" 
d="M92 171q-14 -41 -14 -76q0 -79 59 -82q103 -5 199 142q10 15 17 -1q10 -22 -17 -62q-32 -47 -85.5 -77t-110.5 -31q-64 -1 -100 37.5t-36 99.5q0 56 30 115q38 75 92 120q50 40 93 40q19 0 32 -8q36 -21 59 -52q9 -12 9 -34q0 -52 -41 -102q-50 -61 -107 -61
q-40 0 -79 32zM101 193q17 -11 34 -11q39 0 85 61q44 58 44 93q0 15 -13 15q-25 0 -67 -39q-46 -43 -75 -102q-3 -6 -8 -17zM405 491q17 -9 0 -17q-45 -22 -116 -50q-33 -9 -53 0q-16 7 1 17q35 23 97 55q13 5 29 5q25 0 42 -10z" />
    <glyph glyph-name="ecircumflex" unicode="&#xea;" horiz-adv-x="320" 
d="M92 171q-14 -41 -14 -76q0 -79 59 -82q103 -5 199 142q10 15 17 -1q10 -22 -17 -62q-32 -47 -85.5 -77t-110.5 -31q-64 -1 -100 37.5t-36 99.5q0 56 30 115q38 75 92 120q50 40 93 40q19 0 32 -8q36 -21 59 -52q9 -12 9 -34q0 -52 -41 -102q-50 -61 -107 -61
q-40 0 -79 32zM101 193q17 -11 34 -11q39 0 85 61q44 58 44 93q0 15 -13 15q-25 0 -67 -39q-46 -43 -75 -102q-3 -6 -8 -17zM252 465q-31 -21 -60 -36t-51 -9q-5 2 -5 6q0 5 5 9q42 32 117 82q3 2 11 4q13 0 21 -15q16 -32 40 -70q7 -12 -6 -15q-28 -6 -53 19q-7 7 -19 25z
" />
    <glyph glyph-name="edieresis" unicode="&#xeb;" horiz-adv-x="320" 
d="M92 171q-14 -41 -14 -76q0 -79 59 -82q103 -5 199 142q10 15 17 -1q10 -22 -17 -62q-32 -47 -85.5 -77t-110.5 -31q-64 -1 -100 37.5t-36 99.5q0 56 30 115q38 75 92 120q50 40 93 40q19 0 32 -8q36 -21 59 -52q9 -12 9 -34q0 -52 -41 -102q-50 -61 -107 -61
q-40 0 -79 32zM101 193q17 -11 34 -11q39 0 85 61q44 58 44 93q0 15 -13 15q-25 0 -67 -39q-46 -43 -75 -102q-3 -6 -8 -17zM313 503q24 0 24 -30q0 -17 -12.5 -32.5t-29.5 -15.5q-24 0 -24 27q0 17 13 34t29 17zM204 502q24 0 24 -28q0 -18 -13 -35t-29 -17q-25 0 -25 31
q0 17 13 33t30 16z" />
    <glyph glyph-name="igrave" unicode="&#xec;" horiz-adv-x="201" 
d="M69 -15q-79 0 -79 81q0 29 12 65q18 52 59 129q39 72 69 114q8 11 15 11q11 0 18 -22q5 -16 5 -30q0 -30 -15 -62q-32 -56 -84 -162q-16 -39 -16 -64q0 -32 26 -31q32 2 71 44q35 39 59 93q8 15 16 0q12 -23 -7 -62q-22 -46 -64 -75t-85 -29zM122 504q40 4 63 -32
q16 -25 44 -79q5 -10 -8 -12q-20 -4 -44 23q-51 57 -64 90q-3 9 9 10z" />
    <glyph glyph-name="iacute" unicode="&#xed;" horiz-adv-x="201" 
d="M69 -15q-79 0 -79 81q0 29 12 65q18 52 59 129q39 72 69 114q8 11 15 11q11 0 18 -22q5 -16 5 -30q0 -30 -15 -62q-32 -56 -84 -162q-16 -39 -16 -64q0 -32 26 -31q32 2 71 44q35 39 59 93q8 15 16 0q12 -23 -7 -62q-22 -46 -64 -75t-85 -29zM328 489q6 -3 7 -8
q1 -6 -5 -9q-44 -25 -114 -58q-33 -10 -53 -2q-13 6 0 15q68 49 94 62q15 8 34 8q21 0 37 -8z" />
    <glyph glyph-name="icircumflex" unicode="&#xee;" horiz-adv-x="201" 
d="M69 -15q-79 0 -79 81q0 29 12 65q18 52 59 129q39 72 69 114q8 11 15 11q11 0 18 -22q5 -16 5 -30q0 -30 -15 -62q-32 -56 -84 -162q-16 -39 -16 -64q0 -32 26 -31q32 2 71 44q35 39 59 93q8 15 16 0q12 -23 -7 -62q-22 -46 -64 -75t-85 -29zM190 452q-31 -20 -60.5 -35
t-50.5 -9q-15 4 0 15q42 32 116 81q8 4 13 4q12 1 20 -14q18 -37 41 -70q8 -12 -6 -15q-28 -5 -54 19q-6 8 -19 24z" />
    <glyph glyph-name="idieresis" unicode="&#xef;" horiz-adv-x="201" 
d="M69 -15q-79 0 -79 81q0 29 12 65q18 52 59 129q39 72 69 114q8 11 15 11q11 0 18 -22q5 -16 5 -30q0 -30 -15 -62q-32 -56 -84 -162q-16 -39 -16 -64q0 -32 26 -31q32 2 71 44q35 39 59 93q8 15 16 0q12 -23 -7 -62q-22 -46 -64 -75t-85 -29zM251 501q22 0 22 -28
q0 -18 -12 -34t-30 -16q-23 0 -23 28q0 17 13 33.5t30 16.5zM114 472q6 15 19.5 23t25.5 5q17 -5 17 -27q0 -18 -12 -34t-30 -16q-24 0 -24 29q0 10 4 20z" />
    <glyph glyph-name="eth" unicode="&#xf0;" horiz-adv-x="671" 
d="M695 85q-19 -45 -59 -73.5t-81 -27.5q-43 1 -66.5 28.5t-23.5 70.5q0 25 8 52q25 81 125 190q-60 -37 -120 -37q-120 -302 -247 -305q-43 -1 -65.5 26.5t-22.5 71.5q0 26 8 54q22 75 127 190q-62 -37 -123 -37q-43 -76 -87 -152q-60 -109 -72 -168q-2 -10 -9 -10
q-5 0 -10 5q-23 23 -23 59q0 34 22 75q8 16 133 201q-21 12 -21 38q0 36 34 81q33 42 57 43q21 1 21 -32q0 -36 -24 -93q46 7 108 47q20 13 30 2q28 -29 28 -65q0 -21 -13 -36q-92 -103 -115 -174q-8 -25 -8 -47q0 -50 33 -49q43 1 102 87q56 81 98 193q-31 12 -31 45
q0 36 31.5 78.5t54.5 43.5q21 1 21 -34t-20 -92q53 8 110 48q19 14 30 2q28 -30 28 -65q0 -21 -14 -36q-89 -100 -114 -174q-9 -26 -9 -47q0 -47 34 -49q29 -2 65 39q33 39 59 98q7 16 15 0q13 -26 -4 -65z" />
    <glyph glyph-name="ntilde" unicode="&#xf1;" horiz-adv-x="384" 
d="M160 294q38 41 78 69q45 32 68 29q19 -3 33.5 -22.5t14.5 -45.5q0 -19 -9 -38q-35 -59 -93 -170q-16 -36 -16 -63q0 -42 32 -40q54 3 128 138q8 15 17 1q12 -19 -9 -62.5t-62 -74.5q-44 -33 -86 -33q-89 0 -89 82q0 30 13 67q16 49 64 129q41 69 41 78q0 4 -2 5
q-10 4 -46 -19q-43 -28 -86 -75q-60 -65 -146 -254q-7 -16 -19 -4q-19 19 -19 52q0 22 9 51q15 46 64 136q47 87 96 159q11 16 21 0q11 -19 11 -45q0 -23 -8 -50zM178 442q7 21 28.5 34.5t44.5 13.5q14 0 41.5 -6.5t42.5 -6.5q23 0 43 10q7 3 10 1q3 -3 0 -11
q-20 -47 -76 -47q-16 0 -46 6t-43 6q-20 0 -35 -8q-7 -3 -9 -1q-3 3 -1 9z" />
    <glyph glyph-name="ograve" unicode="&#xf2;" horiz-adv-x="332" 
d="M342 215q-10 -11 -27 -13q-17 -68 -59 -128q-46 -65 -99 -83q-17 -6 -34 -6q-54 0 -92 50q-26 35 -26 84q0 65 42 141q30 54 71 89q45 38 88 41q41 3 68 -34l34 -40q17 -25 13 -70q0 -7 -2 -23q3 0 9.5 1t10.5 1q11 0 3 -10zM256 242q12 47 8 74q-3 21 -14 21
q-17 0 -17 -37q0 -36 23 -58zM249 215q-8 3 -19 12q-45 35 -46 88q-47 -40 -77 -94q-44 -79 -44 -147q0 -50 33 -50q59 0 118 111q22 42 35 80zM195 494q39 11 71 -10.5t81 -70.5q12 -12 -4 -15q-23 -5 -51 9q-15 8 -99 71q-15 11 2 16z" />
    <glyph glyph-name="oacute" unicode="&#xf3;" horiz-adv-x="332" 
d="M342 215q-10 -11 -27 -13q-17 -68 -59 -128q-46 -65 -99 -83q-17 -6 -34 -6q-54 0 -92 50q-26 35 -26 84q0 65 42 141q30 54 71 89q45 38 88 41q41 3 68 -34l34 -40q17 -25 13 -70q0 -7 -2 -23q3 0 9.5 1t10.5 1q11 0 3 -10zM256 242q12 47 8 74q-3 21 -14 21
q-17 0 -17 -37q0 -36 23 -58zM249 215q-8 3 -19 12q-45 35 -46 88q-47 -40 -77 -94q-44 -79 -44 -147q0 -50 33 -50q59 0 118 111q22 42 35 80zM392 490q14 -9 0 -16q-45 -24 -115 -54q-37 -10 -53 0q-5 2 -6 6q0 5 6 9q69 45 95 57q16 8 35 8q22 0 38 -10z" />
    <glyph glyph-name="ocircumflex" unicode="&#xf4;" horiz-adv-x="332" 
d="M342 215q-10 -11 -27 -13q-17 -68 -59 -128q-46 -65 -99 -83q-17 -6 -34 -6q-54 0 -92 50q-26 35 -26 84q0 65 42 141q30 54 71 89q45 38 88 41q41 3 68 -34l34 -40q17 -25 13 -70q0 -7 -2 -23q3 0 9.5 1t10.5 1q11 0 3 -10zM256 242q12 47 8 74q-3 21 -14 21
q-17 0 -17 -37q0 -36 23 -58zM249 215q-8 3 -19 12q-45 35 -46 88q-47 -40 -77 -94q-44 -79 -44 -147q0 -50 33 -50q59 0 118 111q22 42 35 80zM241 453q-22 -14 -60 -36q-32 -15 -51 -9q-16 5 -2 15q43 32 117 82q3 2 12 4q11 0 20 -15q15 -26 41 -70q7 -12 -6 -15
q-28 -6 -52 19q-8 8 -19 25z" />
    <glyph glyph-name="otilde" unicode="&#xf5;" horiz-adv-x="332" 
d="M342 215q-10 -11 -27 -13q-17 -68 -59 -128q-46 -65 -99 -83q-17 -6 -34 -6q-54 0 -92 50q-26 35 -26 84q0 65 42 141q30 54 71 89q45 38 88 41q41 3 68 -34l34 -40q17 -25 13 -70q0 -7 -2 -23q3 0 9.5 1t10.5 1q11 0 3 -10zM256 242q12 47 8 74q-3 21 -14 21
q-17 0 -17 -37q0 -36 23 -58zM249 215q-8 3 -19 12q-45 35 -46 88q-47 -40 -77 -94q-44 -79 -44 -147q0 -50 33 -50q59 0 118 111q22 42 35 80zM148 429q7 20 29 33.5t45 13.5q13 0 40.5 -6t42.5 -6q22 0 43 10q7 3 10 0q4 -3 0 -11q-20 -46 -77 -46q-16 0 -46 6t-44 6
q-18 0 -33 -7q-7 -4 -10 -2q-2 2 0 9z" />
    <glyph glyph-name="odieresis" unicode="&#xf6;" horiz-adv-x="332" 
d="M342 215q-10 -11 -27 -13q-17 -68 -59 -128q-46 -65 -99 -83q-17 -6 -34 -6q-54 0 -92 50q-26 35 -26 84q0 65 42 141q30 54 71 89q45 38 88 41q41 3 68 -34l34 -40q17 -25 13 -70q0 -7 -2 -23q3 0 9.5 1t10.5 1q11 0 3 -10zM256 242q12 47 8 74q-3 21 -14 21
q-17 0 -17 -37q0 -36 23 -58zM249 215q-8 3 -19 12q-45 35 -46 88q-47 -40 -77 -94q-44 -79 -44 -147q0 -50 33 -50q59 0 118 111q22 42 35 80zM296 494q23 0 23 -28q0 -17 -12.5 -34t-28.5 -17q-24 0 -24 30q0 17 12.5 33t29.5 16zM185 493q25 0 25 -30q0 -17 -12 -33
t-29 -16q-25 0 -25 30q0 16 12.5 32.5t28.5 16.5z" />
    <glyph glyph-name="oslash" unicode="&#xf8;" horiz-adv-x="330" 
d="M305 318q18 -24 15 -74q-5 -82 -61 -165q-62 -94 -139 -94q-39 0 -71 29q-1 -2 -24 -34q-10 -15 -14 3q-5 23 15 58q-22 34 -22 80q0 66 42 139q69 122 159 130q41 4 68 -34l2 -2q17 17 45 46q17 17 19 -4q2 -26 -34 -78zM64 100q77 108 194 234q-2 1 -3 2q-7 6 -17 6
q-26 0 -64.5 -35.5t-67.5 -85.5q-33 -59 -42 -121zM261 263q-66 -74 -192 -224q5 -14 24 -14q56 0 121 110q37 62 47 128z" />
    <glyph glyph-name="ugrave" unicode="&#xf9;" horiz-adv-x="404" 
d="M196 81q-74 -99 -144 -94q-63 4 -63 77q0 31 12 68q39 116 138 255q12 17 26 1q13 -20 13 -45q0 -39 -32 -90q-46 -73 -78 -147q-14 -33 -14 -57q0 -28 19 -30q50 -4 148 154q31 50 74 129q34 63 50 85q9 12 15 12q12 0 19 -23q5 -18 5 -32q0 -31 -15 -63
q-36 -60 -95 -171q-17 -37 -17 -63q0 -36 31 -34q57 3 132 138q4 7 9 7q6 1 9 -6q11 -24 -9 -63q-22 -44 -64.5 -75.5t-85.5 -31.5q-84 0 -84 79q0 10 1 20zM136 492q36 15 71 -7q29 -18 83 -69q11 -11 -3 -14q-26 -6 -52 7q-2 1 -101 67q-14 9 2 16z" />
    <glyph glyph-name="uacute" unicode="&#xfa;" horiz-adv-x="404" 
d="M196 81q-74 -99 -144 -94q-63 4 -63 77q0 31 12 68q39 116 138 255q12 17 26 1q13 -20 13 -45q0 -39 -32 -90q-46 -73 -78 -147q-14 -33 -14 -57q0 -28 19 -30q50 -4 148 154q31 50 74 129q34 63 50 85q9 12 15 12q12 0 19 -23q5 -18 5 -32q0 -31 -15 -63
q-36 -60 -95 -171q-17 -37 -17 -63q0 -36 31 -34q57 3 132 138q4 7 9 7q6 1 9 -6q11 -24 -9 -63q-22 -44 -64.5 -75.5t-85.5 -31.5q-84 0 -84 79q0 10 1 20zM394 479q14 -9 0 -16q-44 -23 -115 -54q-33 -10 -52 -1q-13 6 1 16q67 46 95 58q16 7 33 7q22 0 38 -10z" />
    <glyph glyph-name="ucircumflex" unicode="&#xfb;" horiz-adv-x="404" 
d="M196 81q-74 -99 -144 -94q-63 4 -63 77q0 31 12 68q39 116 138 255q12 17 26 1q13 -20 13 -45q0 -39 -32 -90q-46 -73 -78 -147q-14 -33 -14 -57q0 -28 19 -30q50 -4 148 154q31 50 74 129q34 63 50 85q9 12 15 12q12 0 19 -23q5 -18 5 -32q0 -31 -15 -63
q-36 -60 -95 -171q-17 -37 -17 -63q0 -36 31 -34q57 3 132 138q4 7 9 7q6 1 9 -6q11 -24 -9 -63q-22 -44 -64.5 -75.5t-85.5 -31.5q-84 0 -84 79q0 10 1 20zM280 455q-22 -14 -60 -37q-29 -14 -51 -8q-15 4 0 15q42 32 116 82q1 1 11 4q14 0 22 -15q26 -50 40 -70
q8 -12 -7 -15q-28 -7 -52 19q-8 9 -19 25z" />
    <glyph glyph-name="udieresis" unicode="&#xfc;" horiz-adv-x="404" 
d="M196 81q-74 -99 -144 -94q-63 4 -63 77q0 31 12 68q39 116 138 255q12 17 26 1q13 -20 13 -45q0 -39 -32 -90q-46 -73 -78 -147q-14 -33 -14 -57q0 -28 19 -30q50 -4 148 154q31 50 74 129q34 63 50 85q9 12 15 12q12 0 19 -23q5 -18 5 -32q0 -31 -15 -63
q-36 -60 -95 -171q-17 -37 -17 -63q0 -36 31 -34q57 3 132 138q4 7 9 7q6 1 9 -6q11 -24 -9 -63q-22 -44 -64.5 -75.5t-85.5 -31.5q-84 0 -84 79q0 10 1 20zM347 493q25 0 25 -31q0 -19 -15.5 -36t-33.5 -12t-18 28q0 16 13.5 33.5t28.5 17.5zM238 490q25 0 25 -28
q0 -17 -12.5 -33t-29.5 -16q-24 0 -24 30q0 17 12 32t29 15z" />
    <glyph glyph-name="yacute" unicode="&#xfd;" horiz-adv-x="603" 
d="M625 85q-18 -45 -58 -73.5t-82 -27.5q-43 1 -66.5 28t-23.5 70q0 25 9 53q24 77 125 190q-60 -37 -120 -37q-49 -124 -95 -191q-64 -94 -142 -110q-20 -4 -39 -4q-88 0 -129 77q-16 29 -16 64q0 49 30 72q7 6 12 6q8 0 9 -16q0 -8 1 -23q67 89 115 171q5 50 34 76
q22 20 41 20q18 0 18 -17q0 -9 -13 -32q-3 -6 -10 -18q-1 -19 -1 -39q0 -34 6 -105q5 -62 3 -93q-4 -73 -39 -100q93 47 176 267q-31 12 -31 45q0 36 31.5 78.5t54.5 43.5q21 1 21 -34q0 -34 -19 -92q50 7 110 47q19 16 30 3q26 -32 26 -65q0 -21 -13 -36
q-95 -109 -115 -174q-8 -25 -8 -46q0 -50 33 -51q30 -1 65 39t60 99q7 17 15 0q11 -25 -5 -65zM153 269q-46 -78 -104 -159q23 -91 67 -91q6 0 11 2q30 10 30 120q0 27 -2 68q-2 52 -2 60z" />
    <glyph glyph-name="ydieresis" unicode="&#xff;" horiz-adv-x="375" 
d="M386 97q-48 -75 -192 -134q-57 -135 -95 -202q-60 -104 -115 -125q-10 -4 -19 -4q-21 0 -38 25q-28 42 -28 78q0 21 8 46q40 121 214 189q10 24 31 72q-57 -59 -109 -55q-64 5 -64 76q0 32 13 69q43 124 136 253q12 17 25 0q14 -19 14 -43q0 -37 -33 -90
q-51 -81 -77 -146q-14 -34 -14 -57q0 -27 19 -29q51 -4 140 148q43 82 121 215q12 18 25 7q13 -17 13 -47q0 -32 -17 -65q-89 -172 -133 -275q107 58 177 154q4 6 9 5q5 0 7 -7q5 -22 -18 -58zM104 -72q-76 -44 -122 -117q-39 -61 -39 -104q0 -18 8 -18q18 0 63 68
q50 75 90 171zM323 506q24 0 24 -29q0 -11 -4 -22q-12 -30 -39 -30q-25 0 -25 31q0 18 13.5 34t30.5 16zM208 505q25 0 25 -31q0 -17 -13.5 -33.5t-29.5 -16.5q-24 0 -24 28q0 17 13 35t29 18z" />
    <glyph glyph-name="dotlessi" unicode="&#x131;" horiz-adv-x="201" 
d="M69 -15q-79 0 -79 81q0 29 12 65q18 52 59 129q39 72 69 114q8 11 15 11q11 0 18 -22q5 -16 5 -30q0 -30 -15 -62q-32 -56 -84 -162q-16 -39 -16 -64q0 -32 26 -31q32 2 71 44q35 39 59 93q8 15 16 0q12 -23 -7 -62q-22 -46 -64 -75t-85 -29z" />
    <glyph glyph-name="OE" unicode="&#x152;" horiz-adv-x="746" 
d="M880 550q-87 3 -211 -33q-51 -76 -132 -223q31 6 70 8q67 4 83 -48q4 -15 -11 -15q-78 -2 -187 -29q-44 -88 -72 -151q89 24 150 27q69 4 89 -47q3 -7 0 -11q-2 -4 -12 -4q-66 1 -216 -38q-37 -10 -50.5 9.5t-23.5 39.5v1q-70 -54 -138 -54q-32 0 -64 12
q-115 42 -115 185q0 144 108 282q93 118 191 153q28 10 55 10q51 0 81 -32q67 -30 80 -116q17 27 49 79q17 28 37 34q87 25 161 27q70 2 88 -52q2 -7 1 -10q-3 -4 -11 -4zM422 235q71 131 71 241q0 98 -57 98q-48 0 -115 -51q-76 -56 -135 -148q-76 -119 -76 -235
q0 -115 75 -115q53 0 117 55q68 59 120 155z" />
    <glyph glyph-name="oe" unicode="&#x153;" horiz-adv-x="540" 
d="M557 91q-31 -47 -84.5 -77t-109.5 -31q-92 -1 -122 73q-37 -45 -84 -62q-20 -7 -40 -7q-51 0 -86 47q-26 35 -26 85q0 66 42 140q31 54 72 89q45 38 88 41q39 3 67 -34q14 -13 37 -44q66 80 132 80q17 0 30 -7q38 -21 59 -51q8 -12 8 -31q0 -46 -38 -101
q-42 -60 -108 -60q-44 0 -82 29q-14 -39 -14 -73q0 -39 17 -62t44 -24q102 -4 198 142q12 14 17 -2q8 -23 -17 -60zM256 239q11 42 7 76q-3 23 -14 23q-12 0 -15 -24q-4 -38 22 -75zM321 193q17 -10 35 -10q45 0 87.5 61t42.5 89q0 14 -14 14q-37 0 -89 -60q-45 -51 -62 -94
zM248 213q-61 49 -60 105q-47 -38 -81 -98q-45 -78 -45 -146q0 -49 33 -49q25 0 57.5 28.5t60.5 80.5q17 31 35 79z" />
    <glyph glyph-name="Scaron" unicode="&#x160;" horiz-adv-x="642" 
d="M664 86q-19 -45 -58.5 -74.5t-79.5 -27.5q-44 2 -67.5 29.5t-23.5 69.5q0 26 8 53q23 75 125 189q-62 -37 -121 -37q-59 -133 -136 -213q-86 -90 -175 -90q-64 0 -100 39q-34 36 -34 96q0 56 30 115q38 73 92 118q50 41 92 41q18 0 31 -8q61 -36 61 -81q0 -22 -17 -59
q-27 -60 -28 -63q-4 -11 -7 -13q-4 -2 -14 3q-30 15 -30 54q0 15 6 33q4 11 20 45q12 26 12 36q0 12 -10 12q-21 0 -60 -40q-43 -44 -72 -103q-32 -65 -32 -117q0 -76 57 -79q76 -4 159 90q72 80 117 190q-29 11 -29 42q0 37 33.5 80t57.5 44q19 1 19 -30q0 -34 -23 -95
q52 7 109 48q20 14 30 2q27 -32 27 -65q0 -21 -14 -37q-90 -101 -113 -174q-9 -27 -9 -48q0 -46 34 -48q29 -2 64 40q34 38 59 97q8 17 15 1q11 -25 -5 -65z" />
    <glyph glyph-name="scaron" unicode="&#x161;" horiz-adv-x="687" 
d="M714 150q11 -26 -5 -65q-19 -45 -59 -74.5t-81 -27.5q-43 2 -66.5 29t-23.5 70q0 25 9 53q23 73 125 190q-60 -38 -120 -38q-46 -119 -106 -200q-74 -99 -141 -97q-56 2 -90 47q-38 50 -37 145q0 22 22 29q77 25 130 73q47 43 47 72q0 17 -20 17q-35 0 -89.5 -42
t-99.5 -117q-37 -65 -100 -212q-7 -16 -16 -4q-13 16 -13 43t12 67q21 72 117 260q100 194 164 282q7 9 14 9q8 0 12 -8q9 -17 9 -37q0 -40 -37 -107q-31 -54 -89 -157q62 60 110 60q37 0 60 -49q11 -23 11 -46q0 -40 -32 -70q-59 -56 -139 -82q3 -60 22 -101t43 -42
q38 -1 99 82.5t98 189.5q-31 12 -31 45q0 36 32 80q31 41 54 43q21 1 21 -34q0 -34 -19 -93q48 7 110 48q19 15 28 2q29 -30 29 -64q0 -21 -14 -37q-95 -110 -115 -174q-8 -25 -8 -46q0 -49 33 -50q30 -1 66 40q33 39 59 98q3 6 7 6q5 1 8 -6z" />
    <glyph glyph-name="Ydieresis" unicode="&#x178;" horiz-adv-x="379" 
d="M174 197q-58 -104 -95 -207q-5 -15 -19 -3q-18 15 -18 52q0 22 8 48q15 51 62 145q4 244 29 370q4 22 21 11q40 -25 35 -116q-5 -60 -15 -196q158 175 313 311q6 5 11 5q12 0 12 -28q0 -51 -63 -113q-61 -58 -121 -116q-84 -81 -160 -163zM400 706q24 0 24 -29
q0 -11 -4 -22q-12 -30 -39 -30q-25 0 -25 31q0 18 13.5 34t30.5 16zM285 705q25 0 25 -31q0 -17 -13.5 -33.5t-29.5 -16.5q-24 0 -24 28q0 17 13 35t29 18z" />
    <glyph glyph-name="florin" unicode="&#x192;" horiz-adv-x="862" 
d="M231 456q6 -12 6 -27q0 -48 -33 -48q-23 0 -36 24q-9 17 -9 35q0 16 8.5 31t23.5 15q26 0 40 -30zM686 333q48 6 107 47q19 14 30 2q28 -31 28 -65q0 -22 -14 -37q-89 -98 -114 -174q-8 -25 -8 -47q0 -47 33 -49q29 -2 65 40q33 39 59 98q7 16 15 0q13 -27 -4 -65
q-19 -45 -59 -74t-81 -27q-43 2 -66.5 29t-23.5 69q0 25 8 53q24 77 125 190q-60 -38 -122 -38q-76 -153 -106 -197q-70 -106 -139 -107q-42 -1 -66 26t-24 71q0 26 9 54q24 78 127 192q-60 -40 -123 -40q-52 -120 -118 -199q-78 -94 -153 -102q-41 -4 -62.5 18.5
t-21.5 63.5q0 29 12 63q21 61 69 146q36 63 61 97q8 11 14 11q12 0 19 -21q5 -16 5 -30q0 -31 -15 -64q-30 -50 -86 -165q-15 -37 -15 -61q0 -31 26 -29q51 5 116 83q69 82 110 195q-29 10 -29 41q0 37 34 80.5t58 44.5q19 1 19 -28q0 -34 -24 -97q46 5 110 47q21 14 28 3
q29 -30 29 -66q0 -22 -14 -37q-94 -104 -115 -173q-7 -24 -7 -44q0 -49 34 -51q44 -3 105 83t97 198q-32 11 -32 44q0 37 31.5 79t54.5 44q22 2 22 -38q0 -38 -18 -87z" />
    <glyph glyph-name="circumflex" unicode="&#x2c6;" horiz-adv-x="197" 
d="M116 694q-38 -27 -59 -37q-31 -14 -51 -8q-14 4 0 15q42 32 116 82q3 2 11 4q13 0 21 -15q18 -35 40 -70q7 -12 -6 -15q-28 -6 -52 19q-11 11 -20 25z" />
    <glyph glyph-name="breve" unicode="&#x2d8;" horiz-adv-x="197" 
d="M116 694q-38 -27 -59 -37q-31 -14 -51 -8q-14 4 0 15q42 32 116 82q3 2 11 4q13 0 21 -15q18 -35 40 -70q7 -12 -6 -15q-28 -6 -52 19q-11 11 -20 25z" />
    <glyph glyph-name="ring" unicode="&#x2da;" horiz-adv-x="105" 
d="M83 744q21 -18 21 -45q0 -24 -15.5 -46t-38.5 -22q-12 0 -23 8q-27 20 -27 51q0 24 15.5 45t38.5 21q15 0 29 -12zM72 729q-2 1 -5 1q-16 0 -29 -26q-17 -35 -2 -46q1 -1 4 -1q14 0 26 22q8 14 10 30t-4 20z" />
    <glyph glyph-name="tilde" unicode="&#x2dc;" horiz-adv-x="512" 
d="M223 459q6 -14 6 -30q0 -45 -31 -45q-22 0 -37 23q-11 17 -11 35q0 16 9.5 31t24.5 15q26 0 39 -29zM8 -6q182 81 268 300q-27 11 -27 40q0 36 33.5 80t56.5 45q21 1 21 -29q0 -33 -23 -96q51 8 107 47q20 14 30 3q28 -32 28 -65q0 -21 -14 -37q-89 -100 -114 -175
q-8 -25 -8 -46q0 -49 33 -50q29 -1 65 41q34 39 59 98q7 17 15 0q13 -27 -4 -65q-19 -45 -59 -73.5t-81 -27.5q-43 1 -66.5 28t-23.5 70q0 25 8 53q24 77 124 189q-60 -37 -118 -37q-53 -122 -115 -192q-81 -90 -212 -143q-138 -331 -231 -331q-20 0 -36 24q-31 45 -31 81
q0 21 8 44q43 128 217 189q116 283 203 415q8 12 15 12q23 0 23 -49q0 -32 -16 -67q-46 -89 -135 -276zM-99 -83q-76 -44 -122 -118q-39 -61 -39 -103q0 -18 8 -18q17 0 62 68q50 75 91 171z" />
    <glyph glyph-name="endash" unicode="&#x2013;" horiz-adv-x="414" 
d="M117 199q-62 1 -72 55q-1 8 0 11q2 4 11 3q39 -3 130 4q101 7 134 6q63 -1 73 -54q1 -8 -1.5 -11.5t-10.5 -2.5q-15 2 -39 2q-37 0 -119.5 -6.5t-105.5 -6.5z" />
    <glyph glyph-name="emdash" unicode="&#x2014;" horiz-adv-x="472" 
d="M116 200q-61 2 -71 55q-1 8 0 11q2 4 11 3q41 -3 155 5q120 8 166 6q65 -2 74 -55q1 -8 -1.5 -11.5t-11.5 -2.5q-21 3 -52 3q-45 0 -146 -8q-95 -7 -124 -6z" />
    <glyph glyph-name="quoteleft" unicode="&#x2018;" horiz-adv-x="257" 
d="M251 402q-39 57 -81 145q-11 24 -11 43q0 27 14 27q18 0 61 -96q34 -75 47 -118q4 -14 -6 -17q-11 -3 -24 16z" />
    <glyph glyph-name="quoteright" unicode="&#x2019;" horiz-adv-x="230" 
d="M164 432q-10 -7 -19 -6q-11 2 -4 18q20 44 60 111q52 90 70 90q12 0 12 -25q0 -20 -15 -45q-70 -113 -104 -143z" />
    <glyph glyph-name="quotesinglbase" unicode="&#x201a;" horiz-adv-x="964" 
d="M505 107q-8 -25 -8 -46q0 -48 33 -49q43 -1 102 87q55 80 98 195q-31 11 -31 43q0 36 32 80q31 41 54 43q22 1 22 -32q0 -34 -21 -93q50 5 112 47q19 13 28 3q29 -33 29 -66q0 -21 -14 -37q-95 -107 -115 -173q-8 -25 -8 -46q0 -50 33 -51q30 -1 66 40q33 39 58 98
q3 7 8 7q6 0 8 -6q11 -27 -5 -65q-19 -45 -59 -74t-81 -28q-43 1 -66.5 28t-23.5 70q0 25 9 53q22 71 125 191q-59 -39 -120 -39q-123 -300 -246 -305q-42 -2 -65.5 26.5t-23.5 72.5q0 27 9 55q23 75 124 188q-60 -38 -120 -38q-143 -300 -309 -301q-64 -1 -100 38
q-34 36 -34 96q0 55 30 115q37 73 91 117q50 42 93 42q17 0 30 -8q41 -24 59 -51q8 -11 8 -31q0 -51 -41 -103q-47 -61 -105 -61q-40 0 -79 31q-14 -40 -14 -74q0 -79 58 -82q76 -3 158 90q68 77 116 188q-28 12 -28 43q0 36 34 81q32 42 56 43q20 1 20 -30q0 -35 -23 -95
q49 7 108 47q21 14 28 3q29 -33 29 -66q0 -21 -14 -37q-92 -104 -114 -174zM218 241q43 55 43 93q0 14 -13 14q-25 0 -66 -39q-45 -42 -73 -100q-2 -2 -4.5 -8t-4.5 -9q17 -10 34 -10q37 0 84 59z" />
    <glyph glyph-name="quotedblleft" unicode="&#x201c;" horiz-adv-x="312" 
d="M308 420q-25 55 -55 150q-12 39 4 63q4 6 10 6q8 0 14 -12q34 -73 57 -212q0 -15 -9 -15q-12 0 -21 20zM253 395q-59 95 -84 153q-10 23 -10 42q0 29 15 29q18 0 61 -100q34 -80 47 -124q3 -12 -4 -16q-11 -6 -25 16z" />
    <glyph glyph-name="quotedblright" unicode="&#x201d;" horiz-adv-x="311" 
d="M172 437q-15 -17 -26 -14q-10 3 -5 16q16 41 52 102t61 89q7 7 13 7q7 0 11 -8t4 -18q0 -19 -17 -45q-58 -88 -93 -129zM216 400q-19 -16 -26 -11q-9 7 0 20q23 36 71.5 95.5t76.5 83.5q6 6 13 6q12 0 13 -11q2 -27 -24 -61q-39 -50 -124 -122z" />
    <glyph glyph-name="quotedblbase" unicode="&#x201e;" horiz-adv-x="956" 
d="M496 108q-9 -28 -9 -50q0 -46 35 -46q42 0 102 87q55 80 98 194q-31 11 -31 44q0 36 31.5 78.5t54.5 43.5q21 1 21 -33q0 -35 -20 -92q49 6 110 48q20 14 30 2q28 -32 28 -65q0 -21 -14 -37q-88 -100 -114 -174q-9 -26 -9 -47q0 -47 34 -49q29 -2 65 39q33 39 59 98
q8 18 15 1q12 -28 -4 -65q-20 -46 -59.5 -75t-80.5 -27q-43 2 -66.5 29t-23.5 70q0 25 8 52q24 79 125 191q-60 -38 -120 -38q-120 -302 -245 -305q-43 -1 -67 26.5t-24 71.5q0 26 9 54q24 77 125 190q-57 -37 -122 -37q-47 -79 -123 -83q-17 -69 -59 -128q-46 -66 -98 -83
q-19 -6 -38 -6q-54 0 -89 48q-26 35 -26 85q0 67 43 140q73 125 159 130q42 2 68 -33l34 -40q17 -24 14 -70q-1 -9 -3 -15q49 5 78 61q-27 11 -27 41q0 37 34 80.5t58 43.5q20 0 20 -30q0 -33 -23 -94q48 7 108 46q20 13 29 3q28 -31 28 -65q0 -21 -13 -36
q-92 -104 -115 -174zM257 248q9 44 6 69q-3 21 -13 21q-14 0 -17 -25q-5 -42 24 -65zM249 219q-64 34 -66 98q-43 -38 -76 -95q-44 -77 -44 -145q0 -51 33 -51q58 0 117 109q22 41 36 84z" />
    <glyph glyph-name="dagger" unicode="&#x2020;" horiz-adv-x="326" 
d="M399 538q-18 -35 -68 -36h-32q-39 -67 -103 -185q-5 -11 -15 -1q-17 18 -2 62q13 38 61 124q-44 0 -66 -3q-7 -1 -10 2t0 10q13 32 57 38q21 3 48 3q17 28 45 75q5 9 15 4q12 -11 12 -32q0 -19 -11 -40q-1 -2 -4 -7h63q17 0 10 -14z" />
    <glyph glyph-name="daggerdbl" unicode="&#x2021;" horiz-adv-x="1040" 
d="M578 108q-8 -24 -8 -45q0 -51 34 -51q44 0 104 87q55 79 98 194q-31 11 -31 44q0 36 31.5 78.5t54.5 43.5q20 1 20 -33t-19 -92q49 6 110 48q20 14 30 2q28 -32 28 -65q0 -21 -14 -37q-90 -102 -114 -174q-8 -26 -8 -47q0 -47 33 -49q29 -2 65 39q32 38 59 98q3 6 7 7
q5 1 8 -6q12 -28 -4 -65q-20 -46 -59.5 -75t-80.5 -27q-43 2 -67 29.5t-24 71.5q0 24 8 50q21 72 125 191q-58 -38 -118 -38q-123 -304 -248 -304q-43 0 -66.5 27t-23.5 71q0 25 9 53q24 79 125 191q-60 -38 -120 -38q-119 -291 -245 -302q-44 -4 -66 24q-22 25 -18 69
q-75 -96 -140 -91t-65 77q0 30 12 68q34 108 138 251q6 9 13 9q6 0 12 -8q14 -19 14 -43q0 -38 -33 -89q-51 -80 -77 -148q-12 -32 -12 -56q0 -29 17 -30q49 -4 147 154q31 50 74 128q33 62 49 83q9 12 15 12q12 0 19 -22q5 -16 5 -30q0 -31 -15 -64q-36 -60 -94 -171
q-16 -37 -16 -62q0 -34 26 -31q47 6 104 88q54 78 96 190q-31 11 -31 44q0 36 31.5 78.5t54.5 43.5q21 1 21 -33t-20 -92q52 6 111 48q19 13 29 2q28 -32 28 -66q0 -21 -13 -36q-94 -108 -115 -174z" />
    <glyph glyph-name="bullet" unicode="&#x2022;" horiz-adv-x="151" 
d="M130 246q-18 -33 -46 -33q-37 0 -37 41q0 15 8 30q18 34 53 34q31 0 31 -39q0 -17 -9 -33z" />
    <glyph glyph-name="ellipsis" unicode="&#x2026;" horiz-adv-x="490" 
d="M105 80q31 0 31 -37q0 -12 -5 -25q-15 -37 -46 -37q-30 0 -30 37q0 21 15 41.5t35 20.5zM330 42q14 36 46 36q28 0 28 -34q0 -12 -5 -26q-15 -36 -46 -36q-28 0 -28 34q0 13 5 26zM192 42q16 38 48 38q30 0 30 -36q0 -13 -5 -27q-14 -37 -48 -37q-30 0 -30 36q0 13 5 26z
" />
    <glyph glyph-name="perthousand" unicode="&#x2030;" horiz-adv-x="733" 
d="M209 69q-62 -80 -126 -80q-38 0 -59.5 27.5t-21.5 71.5q0 72 52 148q56 81 116 124q52 37 94 37q28 0 43.5 -19t15.5 -47q18 31 35 55q8 11 15 11q11 0 18 -22q6 -18 6 -32q0 -29 -14 -61q-9 -21 -46.5 -84t-48.5 -90q-16 -37 -16 -61q0 -33 27 -30q48 5 107 85.5
t94 190.5q-32 11 -32 45q0 36 32 80q31 41 54 43q20 1 20 -30t-20 -96q51 6 111 47q20 14 30 2q28 -31 28 -64q0 -21 -14 -37q-93 -108 -114 -174q-8 -26 -8 -47q0 -47 33 -49q30 -2 66 40q32 38 58 98q3 6 7 7q5 0 8 -7q12 -29 -4 -65q-20 -45 -59.5 -74.5t-80.5 -27.5
q-43 2 -66.5 29.5t-23.5 70.5q0 25 8 52q23 75 124 188q-63 -37 -118 -37q-42 -120 -101 -200q-71 -94 -145 -100q-40 -3 -62.5 20t-21.5 62zM279 346q-24 2 -70 -41q-49 -45 -89 -109q-49 -79 -49 -137q0 -36 23 -37q57 -1 143 150q58 102 58 149q0 24 -16 25z" />
    <glyph glyph-name="guilsinglleft" unicode="&#x2039;" horiz-adv-x="645" 
d="M667 88q-19 -45 -59 -75t-81 -28q-43 2 -66.5 29.5t-23.5 69.5q0 26 9 54q24 77 124 189q-60 -38 -120 -38q-143 -299 -310 -302q-64 -1 -99.5 37t-35.5 98q0 56 30 115q37 73 92 118q50 41 93 41q17 0 30 -8q39 -23 59 -51q8 -11 8 -31q0 -50 -41 -103q-48 -61 -105 -61
q-40 0 -79 31q-14 -41 -14 -75q0 -80 58 -83q76 -3 158 91q69 78 117 189q-29 12 -29 43q0 36 35 81q33 42 57 43q19 1 19 -30q0 -34 -23 -95q49 7 109 47q21 14 28 3q29 -32 29 -66q0 -22 -14 -37q-93 -102 -115 -174q-8 -25 -8 -46q0 -49 33 -50q30 -1 66 41q33 38 59 97
q8 17 15 1q12 -26 -5 -65zM101 195q17 -10 34 -10q37 0 84 59q44 56 44 92q0 15 -14 15q-25 0 -66 -39q-45 -42 -74 -100q-2 -6 -8 -17z" />
    <glyph glyph-name="guilsinglright" unicode="&#x203a;" horiz-adv-x="633" 
d="M656 85q-21 -46 -60.5 -75.5t-79.5 -27.5q-44 2 -67.5 29.5t-23.5 70.5q0 25 8 53q21 68 125 190q-61 -39 -121 -39q-49 -78 -124 -81q-16 -69 -58 -129q-46 -66 -98 -83q-18 -6 -37 -6q-54 0 -90 49q-26 35 -26 86q0 64 41 139q29 53 73 89.5t88 40.5q38 3 67 -34
q17 -20 35 -39q16 -25 13 -71q0 -2 -1 -7.5t-1 -8.5q49 9 78 62q-27 12 -27 41q0 37 34 80t57 44q20 1 20 -30q0 -34 -23 -95q48 7 108 48q20 14 30 2q27 -32 27 -65q0 -21 -14 -37q-87 -98 -113 -174q-9 -26 -9 -48q0 -46 34 -48q29 -2 64 40q33 39 59 97q8 18 15 2
q13 -30 -3 -65zM257 247q8 41 5 70q-3 21 -13 21q-14 0 -17 -25q-5 -41 25 -66zM248 218q-63 36 -65 98q-46 -39 -77 -94q-44 -77 -44 -146q0 -51 32 -51q25 0 57.5 29.5t61.5 81.5q25 45 35 82z" />
    <glyph glyph-name="trademark" unicode="&#x2122;" horiz-adv-x="577" 
d="M363 557q-98 -137 -165 -279q-7 -15 -17 -1q-12 17 -12 38q0 22 11 49q23 57 96 175q-6 0 -17 -2q-72 -7 -91 51q-2 6 0.5 9t9.5 2q14 -3 30 -3q34 0 93 14q67 16 90 18q61 6 87 -45q3 -6 1 -10q-3 -5 -11 -4q-42 4 -105 -12zM646 464q-73 -120 -118 -226q-6 -13 -15 -2
q-15 17 -15 40q0 20 11 47q17 43 45 95q-62 -73 -124 -165q-7 -10 -20 -2q-30 19 -29 62q3 28 12 90q-59 -98 -93 -171q-7 -15 -16 -3q-13 17 -13 39q0 21 12 50q42 104 123 224q6 10 12 10t13 -8q10 -11 28 -32q6 -8 2 -40q-6 -34 -17 -110q82 117 164 189q14 13 25 0
q14 -17 21 -42q6 -22 -8 -45z" />
    <glyph glyph-name="glyph216" horiz-adv-x="1000" 
 />
    </font>
</defs>
</svg>
